# Tiled2Unity generated file. Do not modify by hand.
# Wavefront file for 'Ushnu_mesh_0004.obj'

# Vertices (Count = 356)
v -39 -3 0
v -40 -3 0
v -40 -2 0
v -39 -2 0
v -18 -4 0
v -19 -4 0
v -19 -3 0
v -18 -3 0
v -12 -5 0
v -13 -5 0
v -13 -4 0
v -12 -4 0
v -12 -6 0
v -13 -6 0
v -13 -5 0
v -12 -5 0
v -12 -7 0
v -13 -7 0
v -13 -6 0
v -12 -6 0
v -39 -7 0
v -40 -7 0
v -40 -6 0
v -39 -6 0
v -12 -8 0
v -13 -8 0
v -13 -7 0
v -12 -7 0
v -27 -12 0
v -28 -12 0
v -28 -11 0
v -27 -11 0
v -28 -12 0
v -29 -12 0
v -29 -11 0
v -28 -11 0
v -29 -12 0
v -30 -12 0
v -30 -11 0
v -29 -11 0
v -27 -13 0
v -28 -13 0
v -28 -12 0
v -27 -12 0
v -28 -13 0
v -29 -13 0
v -29 -12 0
v -28 -12 0
v -20 -16 0
v -21 -16 0
v -21 -15 0
v -20 -15 0
v -20 -17 0
v -21 -17 0
v -21 -16 0
v -20 -16 0
v -39 -18 0
v -40 -18 0
v -40 -17 0
v -39 -17 0
v -26 -19 0
v -27 -19 0
v -27 -18 0
v -26 -18 0
v -27 -19 0
v -28 -19 0
v -28 -18 0
v -27 -18 0
v -39 -19 0
v -40 -19 0
v -40 -18 0
v -39 -18 0
v -38 -20 0
v -39 -20 0
v -39 -19 0
v -38 -19 0
v -39 -20 0
v -40 -20 0
v -40 -19 0
v -39 -19 0
v -46 -22 0
v -47 -22 0
v -47 -21 0
v -46 -21 0
v -46 -23 0
v -47 -23 0
v -47 -22 0
v -46 -22 0
v -29 -24 0
v -30 -24 0
v -30 -23 0
v -29 -23 0
v -30 -24 0
v -31 -24 0
v -31 -23 0
v -30 -23 0
v -31 -24 0
v -32 -24 0
v -32 -23 0
v -31 -23 0
v -32 -24 0
v -33 -24 0
v -33 -23 0
v -32 -23 0
v -38 -24 0
v -39 -24 0
v -39 -23 0
v -38 -23 0
v -39 -24 0
v -40 -24 0
v -40 -23 0
v -39 -23 0
v -40 -24 0
v -41 -24 0
v -41 -23 0
v -40 -23 0
v -41 -24 0
v -42 -24 0
v -42 -23 0
v -41 -23 0
v -42 -24 0
v -43 -24 0
v -43 -23 0
v -42 -23 0
v -43 -24 0
v -44 -24 0
v -44 -23 0
v -43 -23 0
v -44 -24 0
v -45 -24 0
v -45 -23 0
v -44 -23 0
v -45 -24 0
v -46 -24 0
v -46 -23 0
v -45 -23 0
v -46 -24 0
v -47 -24 0
v -47 -23 0
v -46 -23 0
v -25 -25 0
v -26 -25 0
v -26 -24 0
v -25 -24 0
v -26 -25 0
v -27 -25 0
v -27 -24 0
v -26 -24 0
v -27 -25 0
v -28 -25 0
v -28 -24 0
v -27 -24 0
v -28 -25 0
v -29 -25 0
v -29 -24 0
v -28 -24 0
v -29 -25 0
v -30 -25 0
v -30 -24 0
v -29 -24 0
v -30 -25 0
v -31 -25 0
v -31 -24 0
v -30 -24 0
v -31 -25 0
v -32 -25 0
v -32 -24 0
v -31 -24 0
v -32 -25 0
v -33 -25 0
v -33 -24 0
v -32 -24 0
v -33 -25 0
v -34 -25 0
v -34 -24 0
v -33 -24 0
v -38 -25 0
v -39 -25 0
v -39 -24 0
v -38 -24 0
v -39 -25 0
v -40 -25 0
v -40 -24 0
v -39 -24 0
v -40 -25 0
v -41 -25 0
v -41 -24 0
v -40 -24 0
v -41 -25 0
v -42 -25 0
v -42 -24 0
v -41 -24 0
v -42 -25 0
v -43 -25 0
v -43 -24 0
v -42 -24 0
v -43 -25 0
v -44 -25 0
v -44 -24 0
v -43 -24 0
v -44 -25 0
v -45 -25 0
v -45 -24 0
v -44 -24 0
v -25 -26 0
v -26 -26 0
v -26 -25 0
v -25 -25 0
v -26 -26 0
v -27 -26 0
v -27 -25 0
v -26 -25 0
v -27 -26 0
v -28 -26 0
v -28 -25 0
v -27 -25 0
v -28 -26 0
v -29 -26 0
v -29 -25 0
v -28 -25 0
v -29 -26 0
v -30 -26 0
v -30 -25 0
v -29 -25 0
v -30 -26 0
v -31 -26 0
v -31 -25 0
v -30 -25 0
v -31 -26 0
v -32 -26 0
v -32 -25 0
v -31 -25 0
v -32 -26 0
v -33 -26 0
v -33 -25 0
v -32 -25 0
v -33 -26 0
v -34 -26 0
v -34 -25 0
v -33 -25 0
v -38 -26 0
v -39 -26 0
v -39 -25 0
v -38 -25 0
v -39 -26 0
v -40 -26 0
v -40 -25 0
v -39 -25 0
v -40 -26 0
v -41 -26 0
v -41 -25 0
v -40 -25 0
v -41 -26 0
v -42 -26 0
v -42 -25 0
v -41 -25 0
v -25 -27 0
v -26 -27 0
v -26 -26 0
v -25 -26 0
v -26 -27 0
v -27 -27 0
v -27 -26 0
v -26 -26 0
v -27 -27 0
v -28 -27 0
v -28 -26 0
v -27 -26 0
v -28 -27 0
v -29 -27 0
v -29 -26 0
v -28 -26 0
v -29 -27 0
v -30 -27 0
v -30 -26 0
v -29 -26 0
v -30 -27 0
v -31 -27 0
v -31 -26 0
v -30 -26 0
v -31 -27 0
v -32 -27 0
v -32 -26 0
v -31 -26 0
v -32 -27 0
v -33 -27 0
v -33 -26 0
v -32 -26 0
v -33 -27 0
v -34 -27 0
v -34 -26 0
v -33 -26 0
v -26 -28 0
v -27 -28 0
v -27 -27 0
v -26 -27 0
v -27 -28 0
v -28 -28 0
v -28 -27 0
v -27 -27 0
v -28 -28 0
v -29 -28 0
v -29 -27 0
v -28 -27 0
v -29 -28 0
v -30 -28 0
v -30 -27 0
v -29 -27 0
v -30 -28 0
v -31 -28 0
v -31 -27 0
v -30 -27 0
v -31 -28 0
v -32 -28 0
v -32 -27 0
v -31 -27 0
v -32 -28 0
v -33 -28 0
v -33 -27 0
v -32 -27 0
v -33 -28 0
v -34 -28 0
v -34 -27 0
v -33 -27 0
v -26 -29 0
v -27 -29 0
v -27 -28 0
v -26 -28 0
v -27 -29 0
v -28 -29 0
v -28 -28 0
v -27 -28 0
v -28 -29 0
v -29 -29 0
v -29 -28 0
v -28 -28 0
v -29 -29 0
v -30 -29 0
v -30 -28 0
v -29 -28 0
v -30 -29 0
v -31 -29 0
v -31 -28 0
v -30 -28 0
v -31 -29 0
v -32 -29 0
v -32 -28 0
v -31 -28 0
v -32 -29 0
v -33 -29 0
v -33 -28 0
v -32 -28 0
v -33 -29 0
v -34 -29 0
v -34 -28 0
v -33 -28 0

# Texture cooridinates (Count = 25)
vt 0.25 0.34375
vt 0.28125 0.34375
vt 0.28125 0.359375
vt 0.25 0.359375
vt 0.15625 0.34375
vt 0.1875 0.34375
vt 0.1875 0.359375
vt 0.15625 0.359375
vt 0.15625 0.328125
vt 0.1875 0.328125
vt 0.15625 0.3125
vt 0.1875 0.3125
vt 0.15625 0.296875
vt 0.1875 0.296875
vt 0.21875 0.34375
vt 0.21875 0.359375
vt 0.21875 0.328125
vt 0.25 0.328125
vt 0.28125 0.328125
vt 0.25 0.3125
vt 0.28125 0.3125
vt 0.25 0.296875
vt 0.28125 0.296875
vt 0.21875 0.3125
vt 0.21875 0.296875

# Normal
vn 0 0 -1

# Mesh description
g Ushnu_mesh_0004

# Faces
f 1/1/1 2/2/1 3/3/1 4/4/1
f 5/1/1 6/2/1 7/3/1 8/4/1
f 9/5/1 10/6/1 11/7/1 12/8/1
f 13/9/1 14/10/1 15/6/1 16/5/1
f 17/11/1 18/12/1 19/10/1 20/9/1
f 21/5/1 22/6/1 23/7/1 24/8/1
f 25/13/1 26/14/1 27/12/1 28/11/1
f 29/5/1 30/6/1 31/7/1 32/8/1
f 33/6/1 34/15/1 35/16/1 36/7/1
f 37/15/1 38/1/1 39/4/1 40/16/1
f 41/9/1 42/10/1 43/6/1 44/5/1
f 45/10/1 46/17/1 47/15/1 48/6/1
f 49/1/1 50/2/1 51/3/1 52/4/1
f 53/1/1 54/2/1 55/3/1 56/4/1
f 57/1/1 58/2/1 59/3/1 60/4/1
f 61/13/1 62/14/1 63/12/1 64/11/1
f 65/13/1 66/14/1 67/12/1 68/11/1
f 69/5/1 70/6/1 71/7/1 72/8/1
f 73/5/1 74/6/1 75/7/1 76/8/1
f 77/5/1 78/6/1 79/7/1 80/8/1
f 81/18/1 82/19/1 83/2/1 84/1/1
f 85/20/1 86/21/1 87/19/1 88/18/1
f 89/1/1 90/2/1 91/3/1 92/4/1
f 93/6/1 94/15/1 95/16/1 96/7/1
f 97/15/1 98/1/1 99/4/1 100/16/1
f 101/1/1 102/2/1 103/3/1 104/4/1
f 105/9/1 106/10/1 107/6/1 108/5/1
f 109/10/1 110/17/1 111/15/1 112/6/1
f 113/17/1 114/18/1 115/1/1 116/15/1
f 117/18/1 118/19/1 119/2/1 120/1/1
f 121/20/1 122/21/1 123/19/1 124/18/1
f 125/20/1 126/21/1 127/19/1 128/18/1
f 129/20/1 130/21/1 131/19/1 132/18/1
f 133/22/1 134/23/1 135/21/1 136/20/1
f 137/22/1 138/23/1 139/21/1 140/20/1
f 141/9/1 142/10/1 143/6/1 144/5/1
f 145/10/1 146/17/1 147/15/1 148/6/1
f 149/17/1 150/18/1 151/1/1 152/15/1
f 153/18/1 154/19/1 155/2/1 156/1/1
f 157/18/1 158/19/1 159/2/1 160/1/1
f 161/10/1 162/17/1 163/15/1 164/6/1
f 165/17/1 166/18/1 167/1/1 168/15/1
f 169/18/1 170/19/1 171/2/1 172/1/1
f 173/1/1 174/2/1 175/3/1 176/4/1
f 177/11/1 178/12/1 179/10/1 180/9/1
f 181/12/1 182/24/1 183/17/1 184/10/1
f 185/24/1 186/20/1 187/18/1 188/17/1
f 189/20/1 190/21/1 191/19/1 192/18/1
f 193/22/1 194/23/1 195/21/1 196/20/1
f 197/22/1 198/23/1 199/21/1 200/20/1
f 201/22/1 202/23/1 203/21/1 204/20/1
f 205/11/1 206/12/1 207/10/1 208/9/1
f 209/12/1 210/24/1 211/17/1 212/10/1
f 213/24/1 214/20/1 215/18/1 216/17/1
f 217/20/1 218/21/1 219/19/1 220/18/1
f 221/20/1 222/21/1 223/19/1 224/18/1
f 225/5/1 226/6/1 227/7/1 228/8/1
f 229/6/1 230/15/1 231/16/1 232/7/1
f 233/15/1 234/1/1 235/4/1 236/16/1
f 237/1/1 238/2/1 239/3/1 240/4/1
f 241/13/1 242/14/1 243/12/1 244/11/1
f 245/14/1 246/25/1 247/24/1 248/12/1
f 249/25/1 250/22/1 251/20/1 252/24/1
f 253/22/1 254/23/1 255/21/1 256/20/1
f 257/13/1 258/14/1 259/12/1 260/11/1
f 261/14/1 262/25/1 263/24/1 264/12/1
f 265/25/1 266/22/1 267/20/1 268/24/1
f 269/22/1 270/23/1 271/21/1 272/20/1
f 273/22/1 274/23/1 275/21/1 276/20/1
f 277/9/1 278/10/1 279/6/1 280/5/1
f 281/10/1 282/17/1 283/15/1 284/6/1
f 285/17/1 286/18/1 287/1/1 288/15/1
f 289/18/1 290/19/1 291/2/1 292/1/1
f 293/11/1 294/12/1 295/10/1 296/9/1
f 297/12/1 298/24/1 299/17/1 300/10/1
f 301/24/1 302/20/1 303/18/1 304/17/1
f 305/20/1 306/21/1 307/19/1 308/18/1
f 309/11/1 310/12/1 311/10/1 312/9/1
f 313/12/1 314/24/1 315/17/1 316/10/1
f 317/24/1 318/20/1 319/18/1 320/17/1
f 321/20/1 322/21/1 323/19/1 324/18/1
f 325/13/1 326/14/1 327/12/1 328/11/1
f 329/14/1 330/25/1 331/24/1 332/12/1
f 333/25/1 334/22/1 335/20/1 336/24/1
f 337/22/1 338/23/1 339/21/1 340/20/1
f 341/13/1 342/14/1 343/12/1 344/11/1
f 345/14/1 346/25/1 347/24/1 348/12/1
f 349/25/1 350/22/1 351/20/1 352/24/1
f 353/22/1 354/23/1 355/21/1 356/20/1

