# Tiled2Unity generated file. Do not modify by hand.
# Wavefront file for 'Ushnu_mesh_0006.obj'

# Vertices (Count = 788)
v 0 -1 0
v -1 -1 0
v -1 0 0
v 0 0 0
v -1 -1 0
v -2 -1 0
v -2 0 0
v -1 0 0
v -2 -1 0
v -3 -1 0
v -3 0 0
v -2 0 0
v -3 -1 0
v -4 -1 0
v -4 0 0
v -3 0 0
v -4 -1 0
v -5 -1 0
v -5 0 0
v -4 0 0
v -5 -1 0
v -6 -1 0
v -6 0 0
v -5 0 0
v -6 -1 0
v -7 -1 0
v -7 0 0
v -6 0 0
v -7 -1 0
v -8 -1 0
v -8 0 0
v -7 0 0
v -8 -1 0
v -9 -1 0
v -9 0 0
v -8 0 0
v -9 -1 0
v -10 -1 0
v -10 0 0
v -9 0 0
v -10 -1 0
v -11 -1 0
v -11 0 0
v -10 0 0
v -11 -1 0
v -12 -1 0
v -12 0 0
v -11 0 0
v -12 -1 0
v -13 -1 0
v -13 0 0
v -12 0 0
v -13 -1 0
v -14 -1 0
v -14 0 0
v -13 0 0
v -14 -1 0
v -15 -1 0
v -15 0 0
v -14 0 0
v -15 -1 0
v -16 -1 0
v -16 0 0
v -15 0 0
v -16 -1 0
v -17 -1 0
v -17 0 0
v -16 0 0
v -17 -1 0
v -18 -1 0
v -18 0 0
v -17 0 0
v -18 -1 0
v -19 -1 0
v -19 0 0
v -18 0 0
v -19 -1 0
v -20 -1 0
v -20 0 0
v -19 0 0
v -20 -1 0
v -21 -1 0
v -21 0 0
v -20 0 0
v -21 -1 0
v -22 -1 0
v -22 0 0
v -21 0 0
v -22 -1 0
v -23 -1 0
v -23 0 0
v -22 0 0
v -23 -1 0
v -24 -1 0
v -24 0 0
v -23 0 0
v -24 -1 0
v -25 -1 0
v -25 0 0
v -24 0 0
v -25 -1 0
v -26 -1 0
v -26 0 0
v -25 0 0
v -26 -1 0
v -27 -1 0
v -27 0 0
v -26 0 0
v -27 -1 0
v -28 -1 0
v -28 0 0
v -27 0 0
v -28 -1 0
v -29 -1 0
v -29 0 0
v -28 0 0
v -29 -1 0
v -30 -1 0
v -30 0 0
v -29 0 0
v -30 -1 0
v -31 -1 0
v -31 0 0
v -30 0 0
v -31 -1 0
v -32 -1 0
v -32 0 0
v -31 0 0
v -32 -1 0
v -33 -1 0
v -33 0 0
v -32 0 0
v -33 -1 0
v -34 -1 0
v -34 0 0
v -33 0 0
v -34 -1 0
v -35 -1 0
v -35 0 0
v -34 0 0
v -35 -1 0
v -36 -1 0
v -36 0 0
v -35 0 0
v -36 -1 0
v -37 -1 0
v -37 0 0
v -36 0 0
v -37 -1 0
v -38 -1 0
v -38 0 0
v -37 0 0
v -38 -1 0
v -39 -1 0
v -39 0 0
v -38 0 0
v -39 -1 0
v -40 -1 0
v -40 0 0
v -39 0 0
v -40 -1 0
v -41 -1 0
v -41 0 0
v -40 0 0
v -41 -1 0
v -42 -1 0
v -42 0 0
v -41 0 0
v -42 -1 0
v -43 -1 0
v -43 0 0
v -42 0 0
v -43 -1 0
v -44 -1 0
v -44 0 0
v -43 0 0
v -44 -1 0
v -45 -1 0
v -45 0 0
v -44 0 0
v -45 -1 0
v -46 -1 0
v -46 0 0
v -45 0 0
v -46 -1 0
v -47 -1 0
v -47 0 0
v -46 0 0
v -47 -1 0
v -48 -1 0
v -48 0 0
v -47 0 0
v -48 -1 0
v -49 -1 0
v -49 0 0
v -48 0 0
v -49 -1 0
v -50 -1 0
v -50 0 0
v -49 0 0
v -50 -1 0
v -51 -1 0
v -51 0 0
v -50 0 0
v -51 -1 0
v -52 -1 0
v -52 0 0
v -51 0 0
v -52 -1 0
v -53 -1 0
v -53 0 0
v -52 0 0
v -53 -1 0
v -54 -1 0
v -54 0 0
v -53 0 0
v -54 -1 0
v -55 -1 0
v -55 0 0
v -54 0 0
v -55 -1 0
v -56 -1 0
v -56 0 0
v -55 0 0
v -56 -1 0
v -57 -1 0
v -57 0 0
v -56 0 0
v -57 -1 0
v -58 -1 0
v -58 0 0
v -57 0 0
v -58 -1 0
v -59 -1 0
v -59 0 0
v -58 0 0
v -59 -1 0
v -60 -1 0
v -60 0 0
v -59 0 0
v 0 -2 0
v -1 -2 0
v -1 -1 0
v 0 -1 0
v -59 -2 0
v -60 -2 0
v -60 -1 0
v -59 -1 0
v 0 -3 0
v -1 -3 0
v -1 -2 0
v 0 -2 0
v -59 -3 0
v -60 -3 0
v -60 -2 0
v -59 -2 0
v 0 -4 0
v -1 -4 0
v -1 -3 0
v 0 -3 0
v -59 -4 0
v -60 -4 0
v -60 -3 0
v -59 -3 0
v 0 -5 0
v -1 -5 0
v -1 -4 0
v 0 -4 0
v -59 -5 0
v -60 -5 0
v -60 -4 0
v -59 -4 0
v 0 -6 0
v -1 -6 0
v -1 -5 0
v 0 -5 0
v -5 -6 0
v -6 -6 0
v -6 -5 0
v -5 -5 0
v -59 -6 0
v -60 -6 0
v -60 -5 0
v -59 -5 0
v 0 -7 0
v -1 -7 0
v -1 -6 0
v 0 -6 0
v -5 -7 0
v -6 -7 0
v -6 -6 0
v -5 -6 0
v -59 -7 0
v -60 -7 0
v -60 -6 0
v -59 -6 0
v 0 -8 0
v -1 -8 0
v -1 -7 0
v 0 -7 0
v -5 -8 0
v -6 -8 0
v -6 -7 0
v -5 -7 0
v -59 -8 0
v -60 -8 0
v -60 -7 0
v -59 -7 0
v 0 -9 0
v -1 -9 0
v -1 -8 0
v 0 -8 0
v -5 -9 0
v -6 -9 0
v -6 -8 0
v -5 -8 0
v -59 -9 0
v -60 -9 0
v -60 -8 0
v -59 -8 0
v 0 -10 0
v -1 -10 0
v -1 -9 0
v 0 -9 0
v -5 -10 0
v -6 -10 0
v -6 -9 0
v -5 -9 0
v -59 -10 0
v -60 -10 0
v -60 -9 0
v -59 -9 0
v 0 -11 0
v -1 -11 0
v -1 -10 0
v 0 -10 0
v -5 -11 0
v -6 -11 0
v -6 -10 0
v -5 -10 0
v -59 -11 0
v -60 -11 0
v -60 -10 0
v -59 -10 0
v 0 -12 0
v -1 -12 0
v -1 -11 0
v 0 -11 0
v -5 -12 0
v -6 -12 0
v -6 -11 0
v -5 -11 0
v -59 -12 0
v -60 -12 0
v -60 -11 0
v -59 -11 0
v 0 -13 0
v -1 -13 0
v -1 -12 0
v 0 -12 0
v -5 -13 0
v -6 -13 0
v -6 -12 0
v -5 -12 0
v -59 -13 0
v -60 -13 0
v -60 -12 0
v -59 -12 0
v 0 -14 0
v -1 -14 0
v -1 -13 0
v 0 -13 0
v -5 -14 0
v -6 -14 0
v -6 -13 0
v -5 -13 0
v -59 -14 0
v -60 -14 0
v -60 -13 0
v -59 -13 0
v 0 -15 0
v -1 -15 0
v -1 -14 0
v 0 -14 0
v -5 -15 0
v -6 -15 0
v -6 -14 0
v -5 -14 0
v -59 -15 0
v -60 -15 0
v -60 -14 0
v -59 -14 0
v 0 -16 0
v -1 -16 0
v -1 -15 0
v 0 -15 0
v -5 -16 0
v -6 -16 0
v -6 -15 0
v -5 -15 0
v -59 -16 0
v -60 -16 0
v -60 -15 0
v -59 -15 0
v 0 -17 0
v -1 -17 0
v -1 -16 0
v 0 -16 0
v -5 -17 0
v -6 -17 0
v -6 -16 0
v -5 -16 0
v -59 -17 0
v -60 -17 0
v -60 -16 0
v -59 -16 0
v 0 -18 0
v -1 -18 0
v -1 -17 0
v 0 -17 0
v -5 -18 0
v -6 -18 0
v -6 -17 0
v -5 -17 0
v -59 -18 0
v -60 -18 0
v -60 -17 0
v -59 -17 0
v 0 -19 0
v -1 -19 0
v -1 -18 0
v 0 -18 0
v -5 -19 0
v -6 -19 0
v -6 -18 0
v -5 -18 0
v -59 -19 0
v -60 -19 0
v -60 -18 0
v -59 -18 0
v 0 -20 0
v -1 -20 0
v -1 -19 0
v 0 -19 0
v -5 -20 0
v -6 -20 0
v -6 -19 0
v -5 -19 0
v -59 -20 0
v -60 -20 0
v -60 -19 0
v -59 -19 0
v 0 -21 0
v -1 -21 0
v -1 -20 0
v 0 -20 0
v -59 -21 0
v -60 -21 0
v -60 -20 0
v -59 -20 0
v 0 -22 0
v -1 -22 0
v -1 -21 0
v 0 -21 0
v -59 -22 0
v -60 -22 0
v -60 -21 0
v -59 -21 0
v 0 -23 0
v -1 -23 0
v -1 -22 0
v 0 -22 0
v -59 -23 0
v -60 -23 0
v -60 -22 0
v -59 -22 0
v 0 -24 0
v -1 -24 0
v -1 -23 0
v 0 -23 0
v -59 -24 0
v -60 -24 0
v -60 -23 0
v -59 -23 0
v 0 -25 0
v -1 -25 0
v -1 -24 0
v 0 -24 0
v -59 -25 0
v -60 -25 0
v -60 -24 0
v -59 -24 0
v 0 -26 0
v -1 -26 0
v -1 -25 0
v 0 -25 0
v -59 -26 0
v -60 -26 0
v -60 -25 0
v -59 -25 0
v 0 -27 0
v -1 -27 0
v -1 -26 0
v 0 -26 0
v -59 -27 0
v -60 -27 0
v -60 -26 0
v -59 -26 0
v 0 -28 0
v -1 -28 0
v -1 -27 0
v 0 -27 0
v -59 -28 0
v -60 -28 0
v -60 -27 0
v -59 -27 0
v 0 -29 0
v -1 -29 0
v -1 -28 0
v 0 -28 0
v -59 -29 0
v -60 -29 0
v -60 -28 0
v -59 -28 0
v 0 -30 0
v -1 -30 0
v -1 -29 0
v 0 -29 0
v -59 -30 0
v -60 -30 0
v -60 -29 0
v -59 -29 0
v 0 -31 0
v -1 -31 0
v -1 -30 0
v 0 -30 0
v -59 -31 0
v -60 -31 0
v -60 -30 0
v -59 -30 0
v 0 -32 0
v -1 -32 0
v -1 -31 0
v 0 -31 0
v -59 -32 0
v -60 -32 0
v -60 -31 0
v -59 -31 0
v 0 -33 0
v -1 -33 0
v -1 -32 0
v 0 -32 0
v -59 -33 0
v -60 -33 0
v -60 -32 0
v -59 -32 0
v 0 -34 0
v -1 -34 0
v -1 -33 0
v 0 -33 0
v -59 -34 0
v -60 -34 0
v -60 -33 0
v -59 -33 0
v 0 -35 0
v -1 -35 0
v -1 -34 0
v 0 -34 0
v -1 -35 0
v -2 -35 0
v -2 -34 0
v -1 -34 0
v -2 -35 0
v -3 -35 0
v -3 -34 0
v -2 -34 0
v -3 -35 0
v -4 -35 0
v -4 -34 0
v -3 -34 0
v -4 -35 0
v -5 -35 0
v -5 -34 0
v -4 -34 0
v -5 -35 0
v -6 -35 0
v -6 -34 0
v -5 -34 0
v -6 -35 0
v -7 -35 0
v -7 -34 0
v -6 -34 0
v -7 -35 0
v -8 -35 0
v -8 -34 0
v -7 -34 0
v -8 -35 0
v -9 -35 0
v -9 -34 0
v -8 -34 0
v -9 -35 0
v -10 -35 0
v -10 -34 0
v -9 -34 0
v -10 -35 0
v -11 -35 0
v -11 -34 0
v -10 -34 0
v -11 -35 0
v -12 -35 0
v -12 -34 0
v -11 -34 0
v -12 -35 0
v -13 -35 0
v -13 -34 0
v -12 -34 0
v -13 -35 0
v -14 -35 0
v -14 -34 0
v -13 -34 0
v -14 -35 0
v -15 -35 0
v -15 -34 0
v -14 -34 0
v -15 -35 0
v -16 -35 0
v -16 -34 0
v -15 -34 0
v -16 -35 0
v -17 -35 0
v -17 -34 0
v -16 -34 0
v -17 -35 0
v -18 -35 0
v -18 -34 0
v -17 -34 0
v -18 -35 0
v -19 -35 0
v -19 -34 0
v -18 -34 0
v -19 -35 0
v -20 -35 0
v -20 -34 0
v -19 -34 0
v -20 -35 0
v -21 -35 0
v -21 -34 0
v -20 -34 0
v -21 -35 0
v -22 -35 0
v -22 -34 0
v -21 -34 0
v -22 -35 0
v -23 -35 0
v -23 -34 0
v -22 -34 0
v -23 -35 0
v -24 -35 0
v -24 -34 0
v -23 -34 0
v -24 -35 0
v -25 -35 0
v -25 -34 0
v -24 -34 0
v -25 -35 0
v -26 -35 0
v -26 -34 0
v -25 -34 0
v -26 -35 0
v -27 -35 0
v -27 -34 0
v -26 -34 0
v -27 -35 0
v -28 -35 0
v -28 -34 0
v -27 -34 0
v -32 -35 0
v -33 -35 0
v -33 -34 0
v -32 -34 0
v -33 -35 0
v -34 -35 0
v -34 -34 0
v -33 -34 0
v -34 -35 0
v -35 -35 0
v -35 -34 0
v -34 -34 0
v -35 -35 0
v -36 -35 0
v -36 -34 0
v -35 -34 0
v -36 -35 0
v -37 -35 0
v -37 -34 0
v -36 -34 0
v -37 -35 0
v -38 -35 0
v -38 -34 0
v -37 -34 0
v -38 -35 0
v -39 -35 0
v -39 -34 0
v -38 -34 0
v -39 -35 0
v -40 -35 0
v -40 -34 0
v -39 -34 0
v -40 -35 0
v -41 -35 0
v -41 -34 0
v -40 -34 0
v -41 -35 0
v -42 -35 0
v -42 -34 0
v -41 -34 0
v -42 -35 0
v -43 -35 0
v -43 -34 0
v -42 -34 0
v -43 -35 0
v -44 -35 0
v -44 -34 0
v -43 -34 0
v -44 -35 0
v -45 -35 0
v -45 -34 0
v -44 -34 0
v -45 -35 0
v -46 -35 0
v -46 -34 0
v -45 -34 0
v -46 -35 0
v -47 -35 0
v -47 -34 0
v -46 -34 0
v -47 -35 0
v -48 -35 0
v -48 -34 0
v -47 -34 0
v -48 -35 0
v -49 -35 0
v -49 -34 0
v -48 -34 0
v -49 -35 0
v -50 -35 0
v -50 -34 0
v -49 -34 0
v -50 -35 0
v -51 -35 0
v -51 -34 0
v -50 -34 0
v -51 -35 0
v -52 -35 0
v -52 -34 0
v -51 -34 0
v -52 -35 0
v -53 -35 0
v -53 -34 0
v -52 -34 0
v -53 -35 0
v -54 -35 0
v -54 -34 0
v -53 -34 0
v -54 -35 0
v -55 -35 0
v -55 -34 0
v -54 -34 0
v -55 -35 0
v -56 -35 0
v -56 -34 0
v -55 -34 0
v -56 -35 0
v -57 -35 0
v -57 -34 0
v -56 -34 0
v -57 -35 0
v -58 -35 0
v -58 -34 0
v -57 -34 0
v -58 -35 0
v -59 -35 0
v -59 -34 0
v -58 -34 0
v -59 -35 0
v -60 -35 0
v -60 -34 0
v -59 -34 0

# Texture cooridinates (Count = 24)
vt 0.025 0.6111111
vt 0.05 0.6111111
vt 0.05 0.6388889
vt 0.025 0.6388889
vt 0.075 0.6111111
vt 0.075 0.6388889
vt 0.1 0.6111111
vt 0.1 0.6388889
vt 0.025 0.5833334
vt 0.05 0.5833334
vt 0.05 0.08333331
vt 0.075 0.08333331
vt 0.075 0.1111111
vt 0.05 0.1111111
vt 0.025 0.5555556
vt 0.05 0.5555556
vt 0.075 0.5555556
vt 0.075 0.5833334
vt 0.025 0.5277778
vt 0.05 0.5277778
vt 0 0.5277778
vt 0 0.5555556
vt 0.1 0.5555556
vt 0.1 0.5833334

# Normal
vn 0 0 -1

# Mesh description
g Ushnu_mesh_0006

# Faces
f 1/1/1 2/2/1 3/3/1 4/4/1
f 5/2/1 6/5/1 7/6/1 8/3/1
f 9/2/1 10/5/1 11/6/1 12/3/1
f 13/2/1 14/5/1 15/6/1 16/3/1
f 17/2/1 18/5/1 19/6/1 20/3/1
f 21/2/1 22/5/1 23/6/1 24/3/1
f 25/2/1 26/5/1 27/6/1 28/3/1
f 29/2/1 30/5/1 31/6/1 32/3/1
f 33/2/1 34/5/1 35/6/1 36/3/1
f 37/2/1 38/5/1 39/6/1 40/3/1
f 41/2/1 42/5/1 43/6/1 44/3/1
f 45/2/1 46/5/1 47/6/1 48/3/1
f 49/2/1 50/5/1 51/6/1 52/3/1
f 53/2/1 54/5/1 55/6/1 56/3/1
f 57/2/1 58/5/1 59/6/1 60/3/1
f 61/2/1 62/5/1 63/6/1 64/3/1
f 65/2/1 66/5/1 67/6/1 68/3/1
f 69/2/1 70/5/1 71/6/1 72/3/1
f 73/2/1 74/5/1 75/6/1 76/3/1
f 77/2/1 78/5/1 79/6/1 80/3/1
f 81/2/1 82/5/1 83/6/1 84/3/1
f 85/2/1 86/5/1 87/6/1 88/3/1
f 89/2/1 90/5/1 91/6/1 92/3/1
f 93/2/1 94/5/1 95/6/1 96/3/1
f 97/2/1 98/5/1 99/6/1 100/3/1
f 101/2/1 102/5/1 103/6/1 104/3/1
f 105/2/1 106/5/1 107/6/1 108/3/1
f 109/2/1 110/5/1 111/6/1 112/3/1
f 113/2/1 114/5/1 115/6/1 116/3/1
f 117/2/1 118/5/1 119/6/1 120/3/1
f 121/2/1 122/5/1 123/6/1 124/3/1
f 125/2/1 126/5/1 127/6/1 128/3/1
f 129/2/1 130/5/1 131/6/1 132/3/1
f 133/2/1 134/5/1 135/6/1 136/3/1
f 137/2/1 138/5/1 139/6/1 140/3/1
f 141/2/1 142/5/1 143/6/1 144/3/1
f 145/2/1 146/5/1 147/6/1 148/3/1
f 149/2/1 150/5/1 151/6/1 152/3/1
f 153/2/1 154/5/1 155/6/1 156/3/1
f 157/2/1 158/5/1 159/6/1 160/3/1
f 161/2/1 162/5/1 163/6/1 164/3/1
f 165/2/1 166/5/1 167/6/1 168/3/1
f 169/2/1 170/5/1 171/6/1 172/3/1
f 173/2/1 174/5/1 175/6/1 176/3/1
f 177/2/1 178/5/1 179/6/1 180/3/1
f 181/2/1 182/5/1 183/6/1 184/3/1
f 185/2/1 186/5/1 187/6/1 188/3/1
f 189/2/1 190/5/1 191/6/1 192/3/1
f 193/2/1 194/5/1 195/6/1 196/3/1
f 197/2/1 198/5/1 199/6/1 200/3/1
f 201/2/1 202/5/1 203/6/1 204/3/1
f 205/2/1 206/5/1 207/6/1 208/3/1
f 209/2/1 210/5/1 211/6/1 212/3/1
f 213/2/1 214/5/1 215/6/1 216/3/1
f 217/2/1 218/5/1 219/6/1 220/3/1
f 221/2/1 222/5/1 223/6/1 224/3/1
f 225/2/1 226/5/1 227/6/1 228/3/1
f 229/2/1 230/5/1 231/6/1 232/3/1
f 233/2/1 234/5/1 235/6/1 236/3/1
f 237/5/1 238/7/1 239/8/1 240/6/1
f 241/9/1 242/10/1 243/2/1 244/1/1
f 245/9/1 246/10/1 247/2/1 248/1/1
f 249/9/1 250/10/1 251/2/1 252/1/1
f 253/9/1 254/10/1 255/2/1 256/1/1
f 257/9/1 258/10/1 259/2/1 260/1/1
f 261/9/1 262/10/1 263/2/1 264/1/1
f 265/9/1 266/10/1 267/2/1 268/1/1
f 269/9/1 270/10/1 271/2/1 272/1/1
f 273/9/1 274/10/1 275/2/1 276/1/1
f 277/11/1 278/12/1 279/13/1 280/14/1
f 281/9/1 282/10/1 283/2/1 284/1/1
f 285/9/1 286/10/1 287/2/1 288/1/1
f 289/11/1 290/12/1 291/13/1 292/14/1
f 293/9/1 294/10/1 295/2/1 296/1/1
f 297/9/1 298/10/1 299/2/1 300/1/1
f 301/11/1 302/12/1 303/13/1 304/14/1
f 305/9/1 306/10/1 307/2/1 308/1/1
f 309/9/1 310/10/1 311/2/1 312/1/1
f 313/11/1 314/12/1 315/13/1 316/14/1
f 317/9/1 318/10/1 319/2/1 320/1/1
f 321/9/1 322/10/1 323/2/1 324/1/1
f 325/11/1 326/12/1 327/13/1 328/14/1
f 329/9/1 330/10/1 331/2/1 332/1/1
f 333/9/1 334/10/1 335/2/1 336/1/1
f 337/11/1 338/12/1 339/13/1 340/14/1
f 341/9/1 342/10/1 343/2/1 344/1/1
f 345/9/1 346/10/1 347/2/1 348/1/1
f 349/11/1 350/12/1 351/13/1 352/14/1
f 353/9/1 354/10/1 355/2/1 356/1/1
f 357/9/1 358/10/1 359/2/1 360/1/1
f 361/11/1 362/12/1 363/13/1 364/14/1
f 365/9/1 366/10/1 367/2/1 368/1/1
f 369/9/1 370/10/1 371/2/1 372/1/1
f 373/11/1 374/12/1 375/13/1 376/14/1
f 377/9/1 378/10/1 379/2/1 380/1/1
f 381/9/1 382/10/1 383/2/1 384/1/1
f 385/11/1 386/12/1 387/13/1 388/14/1
f 389/9/1 390/10/1 391/2/1 392/1/1
f 393/9/1 394/10/1 395/2/1 396/1/1
f 397/11/1 398/12/1 399/13/1 400/14/1
f 401/9/1 402/10/1 403/2/1 404/1/1
f 405/9/1 406/10/1 407/2/1 408/1/1
f 409/11/1 410/12/1 411/13/1 412/14/1
f 413/9/1 414/10/1 415/2/1 416/1/1
f 417/9/1 418/10/1 419/2/1 420/1/1
f 421/11/1 422/12/1 423/13/1 424/14/1
f 425/9/1 426/10/1 427/2/1 428/1/1
f 429/9/1 430/10/1 431/2/1 432/1/1
f 433/11/1 434/12/1 435/13/1 436/14/1
f 437/9/1 438/10/1 439/2/1 440/1/1
f 441/9/1 442/10/1 443/2/1 444/1/1
f 445/11/1 446/12/1 447/13/1 448/14/1
f 449/9/1 450/10/1 451/2/1 452/1/1
f 453/9/1 454/10/1 455/2/1 456/1/1
f 457/9/1 458/10/1 459/2/1 460/1/1
f 461/9/1 462/10/1 463/2/1 464/1/1
f 465/9/1 466/10/1 467/2/1 468/1/1
f 469/9/1 470/10/1 471/2/1 472/1/1
f 473/9/1 474/10/1 475/2/1 476/1/1
f 477/9/1 478/10/1 479/2/1 480/1/1
f 481/9/1 482/10/1 483/2/1 484/1/1
f 485/9/1 486/10/1 487/2/1 488/1/1
f 489/9/1 490/10/1 491/2/1 492/1/1
f 493/9/1 494/10/1 495/2/1 496/1/1
f 497/9/1 498/10/1 499/2/1 500/1/1
f 501/9/1 502/10/1 503/2/1 504/1/1
f 505/9/1 506/10/1 507/2/1 508/1/1
f 509/9/1 510/10/1 511/2/1 512/1/1
f 513/9/1 514/10/1 515/2/1 516/1/1
f 517/9/1 518/10/1 519/2/1 520/1/1
f 521/9/1 522/10/1 523/2/1 524/1/1
f 525/9/1 526/10/1 527/2/1 528/1/1
f 529/9/1 530/10/1 531/2/1 532/1/1
f 533/9/1 534/10/1 535/2/1 536/1/1
f 537/9/1 538/10/1 539/2/1 540/1/1
f 541/9/1 542/10/1 543/2/1 544/1/1
f 545/9/1 546/10/1 547/2/1 548/1/1
f 549/9/1 550/10/1 551/2/1 552/1/1
f 553/9/1 554/10/1 555/2/1 556/1/1
f 557/9/1 558/10/1 559/2/1 560/1/1
f 561/9/1 562/10/1 563/2/1 564/1/1
f 565/15/1 566/16/1 567/10/1 568/9/1
f 569/2/1 570/5/1 571/6/1 572/3/1
f 573/2/1 574/5/1 575/6/1 576/3/1
f 577/2/1 578/5/1 579/6/1 580/3/1
f 581/2/1 582/5/1 583/6/1 584/3/1
f 585/2/1 586/5/1 587/6/1 588/3/1
f 589/2/1 590/5/1 591/6/1 592/3/1
f 593/2/1 594/5/1 595/6/1 596/3/1
f 597/2/1 598/5/1 599/6/1 600/3/1
f 601/2/1 602/5/1 603/6/1 604/3/1
f 605/2/1 606/5/1 607/6/1 608/3/1
f 609/2/1 610/5/1 611/6/1 612/3/1
f 613/2/1 614/5/1 615/6/1 616/3/1
f 617/2/1 618/5/1 619/6/1 620/3/1
f 621/2/1 622/5/1 623/6/1 624/3/1
f 625/2/1 626/5/1 627/6/1 628/3/1
f 629/2/1 630/5/1 631/6/1 632/3/1
f 633/2/1 634/5/1 635/6/1 636/3/1
f 637/2/1 638/5/1 639/6/1 640/3/1
f 641/2/1 642/5/1 643/6/1 644/3/1
f 645/2/1 646/5/1 647/6/1 648/3/1
f 649/2/1 650/5/1 651/6/1 652/3/1
f 653/2/1 654/5/1 655/6/1 656/3/1
f 657/2/1 658/5/1 659/6/1 660/3/1
f 661/2/1 662/5/1 663/6/1 664/3/1
f 665/2/1 666/5/1 667/6/1 668/3/1
f 669/16/1 670/17/1 671/18/1 672/10/1
f 673/19/1 674/20/1 675/16/1 676/15/1
f 677/21/1 678/19/1 679/15/1 680/22/1
f 681/16/1 682/17/1 683/18/1 684/10/1
f 685/2/1 686/5/1 687/6/1 688/3/1
f 689/2/1 690/5/1 691/6/1 692/3/1
f 693/2/1 694/5/1 695/6/1 696/3/1
f 697/2/1 698/5/1 699/6/1 700/3/1
f 701/2/1 702/5/1 703/6/1 704/3/1
f 705/2/1 706/5/1 707/6/1 708/3/1
f 709/2/1 710/5/1 711/6/1 712/3/1
f 713/2/1 714/5/1 715/6/1 716/3/1
f 717/2/1 718/5/1 719/6/1 720/3/1
f 721/2/1 722/5/1 723/6/1 724/3/1
f 725/2/1 726/5/1 727/6/1 728/3/1
f 729/2/1 730/5/1 731/6/1 732/3/1
f 733/2/1 734/5/1 735/6/1 736/3/1
f 737/2/1 738/5/1 739/6/1 740/3/1
f 741/2/1 742/5/1 743/6/1 744/3/1
f 745/2/1 746/5/1 747/6/1 748/3/1
f 749/2/1 750/5/1 751/6/1 752/3/1
f 753/2/1 754/5/1 755/6/1 756/3/1
f 757/2/1 758/5/1 759/6/1 760/3/1
f 761/2/1 762/5/1 763/6/1 764/3/1
f 765/2/1 766/5/1 767/6/1 768/3/1
f 769/2/1 770/5/1 771/6/1 772/3/1
f 773/2/1 774/5/1 775/6/1 776/3/1
f 777/2/1 778/5/1 779/6/1 780/3/1
f 781/2/1 782/5/1 783/6/1 784/3/1
f 785/17/1 786/23/1 787/24/1 788/18/1

