# Tiled2Unity generated file. Do not modify by hand.
# Wavefront file for 'Tambo_mesh_0002.obj'

# Vertices (Count = 712)
v 0 -1 0
v -1 -1 0
v -1 0 0
v 0 0 0
v -1 -1 0
v -2 -1 0
v -2 0 0
v -1 0 0
v -2 -1 0
v -3 -1 0
v -3 0 0
v -2 0 0
v -3 -1 0
v -4 -1 0
v -4 0 0
v -3 0 0
v -4 -1 0
v -5 -1 0
v -5 0 0
v -4 0 0
v -5 -1 0
v -6 -1 0
v -6 0 0
v -5 0 0
v -6 -1 0
v -7 -1 0
v -7 0 0
v -6 0 0
v -7 -1 0
v -8 -1 0
v -8 0 0
v -7 0 0
v -8 -1 0
v -9 -1 0
v -9 0 0
v -8 0 0
v -9 -1 0
v -10 -1 0
v -10 0 0
v -9 0 0
v -10 -1 0
v -11 -1 0
v -11 0 0
v -10 0 0
v -11 -1 0
v -12 -1 0
v -12 0 0
v -11 0 0
v -12 -1 0
v -13 -1 0
v -13 0 0
v -12 0 0
v -13 -1 0
v -14 -1 0
v -14 0 0
v -13 0 0
v -14 -1 0
v -15 -1 0
v -15 0 0
v -14 0 0
v -15 -1 0
v -16 -1 0
v -16 0 0
v -15 0 0
v -16 -1 0
v -17 -1 0
v -17 0 0
v -16 0 0
v -17 -1 0
v -18 -1 0
v -18 0 0
v -17 0 0
v -18 -1 0
v -19 -1 0
v -19 0 0
v -18 0 0
v -19 -1 0
v -20 -1 0
v -20 0 0
v -19 0 0
v 0 -2 0
v -1 -2 0
v -1 -1 0
v 0 -1 0
v -1 -2 0
v -2 -2 0
v -2 -1 0
v -1 -1 0
v -2 -2 0
v -3 -2 0
v -3 -1 0
v -2 -1 0
v -3 -2 0
v -4 -2 0
v -4 -1 0
v -3 -1 0
v -4 -2 0
v -5 -2 0
v -5 -1 0
v -4 -1 0
v -5 -2 0
v -6 -2 0
v -6 -1 0
v -5 -1 0
v -6 -2 0
v -7 -2 0
v -7 -1 0
v -6 -1 0
v -7 -2 0
v -8 -2 0
v -8 -1 0
v -7 -1 0
v -8 -2 0
v -9 -2 0
v -9 -1 0
v -8 -1 0
v -9 -2 0
v -10 -2 0
v -10 -1 0
v -9 -1 0
v -10 -2 0
v -11 -2 0
v -11 -1 0
v -10 -1 0
v -11 -2 0
v -12 -2 0
v -12 -1 0
v -11 -1 0
v -12 -2 0
v -13 -2 0
v -13 -1 0
v -12 -1 0
v -13 -2 0
v -14 -2 0
v -14 -1 0
v -13 -1 0
v -14 -2 0
v -15 -2 0
v -15 -1 0
v -14 -1 0
v -15 -2 0
v -16 -2 0
v -16 -1 0
v -15 -1 0
v -16 -2 0
v -17 -2 0
v -17 -1 0
v -16 -1 0
v -17 -2 0
v -18 -2 0
v -18 -1 0
v -17 -1 0
v -18 -2 0
v -19 -2 0
v -19 -1 0
v -18 -1 0
v -19 -2 0
v -20 -2 0
v -20 -1 0
v -19 -1 0
v 0 -3 0
v -1 -3 0
v -1 -2 0
v 0 -2 0
v -1 -3 0
v -2 -3 0
v -2 -2 0
v -1 -2 0
v -18 -3 0
v -19 -3 0
v -19 -2 0
v -18 -2 0
v -19 -3 0
v -20 -3 0
v -20 -2 0
v -19 -2 0
v 0 -4 0
v -1 -4 0
v -1 -3 0
v 0 -3 0
v -1 -4 0
v -2 -4 0
v -2 -3 0
v -1 -3 0
v -18 -4 0
v -19 -4 0
v -19 -3 0
v -18 -3 0
v -19 -4 0
v -20 -4 0
v -20 -3 0
v -19 -3 0
v 0 -5 0
v -1 -5 0
v -1 -4 0
v 0 -4 0
v -1 -5 0
v -2 -5 0
v -2 -4 0
v -1 -4 0
v -18 -5 0
v -19 -5 0
v -19 -4 0
v -18 -4 0
v -19 -5 0
v -20 -5 0
v -20 -4 0
v -19 -4 0
v 0 -6 0
v -1 -6 0
v -1 -5 0
v 0 -5 0
v -1 -6 0
v -2 -6 0
v -2 -5 0
v -1 -5 0
v -18 -6 0
v -19 -6 0
v -19 -5 0
v -18 -5 0
v -19 -6 0
v -20 -6 0
v -20 -5 0
v -19 -5 0
v 0 -7 0
v -1 -7 0
v -1 -6 0
v 0 -6 0
v -1 -7 0
v -2 -7 0
v -2 -6 0
v -1 -6 0
v -18 -7 0
v -19 -7 0
v -19 -6 0
v -18 -6 0
v -19 -7 0
v -20 -7 0
v -20 -6 0
v -19 -6 0
v 0 -8 0
v -1 -8 0
v -1 -7 0
v 0 -7 0
v -1 -8 0
v -2 -8 0
v -2 -7 0
v -1 -7 0
v -18 -8 0
v -19 -8 0
v -19 -7 0
v -18 -7 0
v -19 -8 0
v -20 -8 0
v -20 -7 0
v -19 -7 0
v 0 -9 0
v -1 -9 0
v -1 -8 0
v 0 -8 0
v -1 -9 0
v -2 -9 0
v -2 -8 0
v -1 -8 0
v -18 -9 0
v -19 -9 0
v -19 -8 0
v -18 -8 0
v -19 -9 0
v -20 -9 0
v -20 -8 0
v -19 -8 0
v 0 -10 0
v -1 -10 0
v -1 -9 0
v 0 -9 0
v -1 -10 0
v -2 -10 0
v -2 -9 0
v -1 -9 0
v -18 -10 0
v -19 -10 0
v -19 -9 0
v -18 -9 0
v -19 -10 0
v -20 -10 0
v -20 -9 0
v -19 -9 0
v 0 -11 0
v -1 -11 0
v -1 -10 0
v 0 -10 0
v -1 -11 0
v -2 -11 0
v -2 -10 0
v -1 -10 0
v -18 -11 0
v -19 -11 0
v -19 -10 0
v -18 -10 0
v -19 -11 0
v -20 -11 0
v -20 -10 0
v -19 -10 0
v 0 -12 0
v -1 -12 0
v -1 -11 0
v 0 -11 0
v -1 -12 0
v -2 -12 0
v -2 -11 0
v -1 -11 0
v -18 -12 0
v -19 -12 0
v -19 -11 0
v -18 -11 0
v -19 -12 0
v -20 -12 0
v -20 -11 0
v -19 -11 0
v 0 -13 0
v -1 -13 0
v -1 -12 0
v 0 -12 0
v -1 -13 0
v -2 -13 0
v -2 -12 0
v -1 -12 0
v -18 -13 0
v -19 -13 0
v -19 -12 0
v -18 -12 0
v -19 -13 0
v -20 -13 0
v -20 -12 0
v -19 -12 0
v 0 -14 0
v -1 -14 0
v -1 -13 0
v 0 -13 0
v -1 -14 0
v -2 -14 0
v -2 -13 0
v -1 -13 0
v -18 -14 0
v -19 -14 0
v -19 -13 0
v -18 -13 0
v -19 -14 0
v -20 -14 0
v -20 -13 0
v -19 -13 0
v 0 -15 0
v -1 -15 0
v -1 -14 0
v 0 -14 0
v -1 -15 0
v -2 -15 0
v -2 -14 0
v -1 -14 0
v -18 -15 0
v -19 -15 0
v -19 -14 0
v -18 -14 0
v -19 -15 0
v -20 -15 0
v -20 -14 0
v -19 -14 0
v 0 -16 0
v -1 -16 0
v -1 -15 0
v 0 -15 0
v -1 -16 0
v -2 -16 0
v -2 -15 0
v -1 -15 0
v -18 -16 0
v -19 -16 0
v -19 -15 0
v -18 -15 0
v -19 -16 0
v -20 -16 0
v -20 -15 0
v -19 -15 0
v 0 -17 0
v -1 -17 0
v -1 -16 0
v 0 -16 0
v -1 -17 0
v -2 -17 0
v -2 -16 0
v -1 -16 0
v -18 -17 0
v -19 -17 0
v -19 -16 0
v -18 -16 0
v -19 -17 0
v -20 -17 0
v -20 -16 0
v -19 -16 0
v 0 -18 0
v -1 -18 0
v -1 -17 0
v 0 -17 0
v -1 -18 0
v -2 -18 0
v -2 -17 0
v -1 -17 0
v -18 -18 0
v -19 -18 0
v -19 -17 0
v -18 -17 0
v -19 -18 0
v -20 -18 0
v -20 -17 0
v -19 -17 0
v 0 -19 0
v -1 -19 0
v -1 -18 0
v 0 -18 0
v -1 -19 0
v -2 -19 0
v -2 -18 0
v -1 -18 0
v -18 -19 0
v -19 -19 0
v -19 -18 0
v -18 -18 0
v -19 -19 0
v -20 -19 0
v -20 -18 0
v -19 -18 0
v 0 -20 0
v -1 -20 0
v -1 -19 0
v 0 -19 0
v -1 -20 0
v -2 -20 0
v -2 -19 0
v -1 -19 0
v -18 -20 0
v -19 -20 0
v -19 -19 0
v -18 -19 0
v -19 -20 0
v -20 -20 0
v -20 -19 0
v -19 -19 0
v 0 -21 0
v -1 -21 0
v -1 -20 0
v 0 -20 0
v -1 -21 0
v -2 -21 0
v -2 -20 0
v -1 -20 0
v -18 -21 0
v -19 -21 0
v -19 -20 0
v -18 -20 0
v -19 -21 0
v -20 -21 0
v -20 -20 0
v -19 -20 0
v 0 -22 0
v -1 -22 0
v -1 -21 0
v 0 -21 0
v -1 -22 0
v -2 -22 0
v -2 -21 0
v -1 -21 0
v -18 -22 0
v -19 -22 0
v -19 -21 0
v -18 -21 0
v -19 -22 0
v -20 -22 0
v -20 -21 0
v -19 -21 0
v 0 -23 0
v -1 -23 0
v -1 -22 0
v 0 -22 0
v -1 -23 0
v -2 -23 0
v -2 -22 0
v -1 -22 0
v -18 -23 0
v -19 -23 0
v -19 -22 0
v -18 -22 0
v -19 -23 0
v -20 -23 0
v -20 -22 0
v -19 -22 0
v 0 -24 0
v -1 -24 0
v -1 -23 0
v 0 -23 0
v -1 -24 0
v -2 -24 0
v -2 -23 0
v -1 -23 0
v -18 -24 0
v -19 -24 0
v -19 -23 0
v -18 -23 0
v -19 -24 0
v -20 -24 0
v -20 -23 0
v -19 -23 0
v 0 -25 0
v -1 -25 0
v -1 -24 0
v 0 -24 0
v -1 -25 0
v -2 -25 0
v -2 -24 0
v -1 -24 0
v -18 -25 0
v -19 -25 0
v -19 -24 0
v -18 -24 0
v -19 -25 0
v -20 -25 0
v -20 -24 0
v -19 -24 0
v 0 -26 0
v -1 -26 0
v -1 -25 0
v 0 -25 0
v -1 -26 0
v -2 -26 0
v -2 -25 0
v -1 -25 0
v -18 -26 0
v -19 -26 0
v -19 -25 0
v -18 -25 0
v -19 -26 0
v -20 -26 0
v -20 -25 0
v -19 -25 0
v 0 -27 0
v -1 -27 0
v -1 -26 0
v 0 -26 0
v -1 -27 0
v -2 -27 0
v -2 -26 0
v -1 -26 0
v -18 -27 0
v -19 -27 0
v -19 -26 0
v -18 -26 0
v -19 -27 0
v -20 -27 0
v -20 -26 0
v -19 -26 0
v 0 -28 0
v -1 -28 0
v -1 -27 0
v 0 -27 0
v -1 -28 0
v -2 -28 0
v -2 -27 0
v -1 -27 0
v -18 -28 0
v -19 -28 0
v -19 -27 0
v -18 -27 0
v -19 -28 0
v -20 -28 0
v -20 -27 0
v -19 -27 0
v 0 -29 0
v -1 -29 0
v -1 -28 0
v 0 -28 0
v -1 -29 0
v -2 -29 0
v -2 -28 0
v -1 -28 0
v -2 -29 0
v -3 -29 0
v -3 -28 0
v -2 -28 0
v -3 -29 0
v -4 -29 0
v -4 -28 0
v -3 -28 0
v -4 -29 0
v -5 -29 0
v -5 -28 0
v -4 -28 0
v -5 -29 0
v -6 -29 0
v -6 -28 0
v -5 -28 0
v -6 -29 0
v -7 -29 0
v -7 -28 0
v -6 -28 0
v -7 -29 0
v -8 -29 0
v -8 -28 0
v -7 -28 0
v -8 -29 0
v -9 -29 0
v -9 -28 0
v -8 -28 0
v -9 -29 0
v -10 -29 0
v -10 -28 0
v -9 -28 0
v -13 -29 0
v -14 -29 0
v -14 -28 0
v -13 -28 0
v -14 -29 0
v -15 -29 0
v -15 -28 0
v -14 -28 0
v -15 -29 0
v -16 -29 0
v -16 -28 0
v -15 -28 0
v -16 -29 0
v -17 -29 0
v -17 -28 0
v -16 -28 0
v -17 -29 0
v -18 -29 0
v -18 -28 0
v -17 -28 0
v -18 -29 0
v -19 -29 0
v -19 -28 0
v -18 -28 0
v -19 -29 0
v -20 -29 0
v -20 -28 0
v -19 -28 0
v 0 -30 0
v -1 -30 0
v -1 -29 0
v 0 -29 0
v -1 -30 0
v -2 -30 0
v -2 -29 0
v -1 -29 0
v -2 -30 0
v -3 -30 0
v -3 -29 0
v -2 -29 0
v -3 -30 0
v -4 -30 0
v -4 -29 0
v -3 -29 0
v -4 -30 0
v -5 -30 0
v -5 -29 0
v -4 -29 0
v -5 -30 0
v -6 -30 0
v -6 -29 0
v -5 -29 0
v -6 -30 0
v -7 -30 0
v -7 -29 0
v -6 -29 0
v -7 -30 0
v -8 -30 0
v -8 -29 0
v -7 -29 0
v -8 -30 0
v -9 -30 0
v -9 -29 0
v -8 -29 0
v -9 -30 0
v -10 -30 0
v -10 -29 0
v -9 -29 0
v -13 -30 0
v -14 -30 0
v -14 -29 0
v -13 -29 0
v -14 -30 0
v -15 -30 0
v -15 -29 0
v -14 -29 0
v -15 -30 0
v -16 -30 0
v -16 -29 0
v -15 -29 0
v -16 -30 0
v -17 -30 0
v -17 -29 0
v -16 -29 0
v -17 -30 0
v -18 -30 0
v -18 -29 0
v -17 -29 0
v -18 -30 0
v -19 -30 0
v -19 -29 0
v -18 -29 0
v -19 -30 0
v -20 -30 0
v -20 -29 0
v -19 -29 0

# Texture cooridinates (Count = 33)
vt 0.425 0.95
vt 0.45 0.95
vt 0.45 0.975
vt 0.425 0.975
vt 0.4 0.975
vt 0.425 1
vt 0.4 1
vt 0.45 1
vt 0.475 0.975
vt 0.475 1
vt 0.5 0.975
vt 0.5 1
vt 0.475 0.95
vt 0.4 0.95
vt 0.5 0.95
vt 0.4 0.925
vt 0.425 0.925
vt 0.4 0.25
vt 0.425 0.25
vt 0.425 0.275
vt 0.4 0.275
vt 0.45 0.25
vt 0.475 0.25
vt 0.475 0.275
vt 0.45 0.275
vt 0.5 0.25
vt 0.525 0.25
vt 0.525 0.275
vt 0.5 0.275
vt 0.375 0.25
vt 0.375 0.275
vt 0.475 0.925
vt 0.5 0.925

# Normal
vn 0 0 -1

# Mesh description
g Tambo_mesh_0002

# Faces
f 1/1/1 2/2/1 3/3/1 4/4/1
f 5/1/1 6/2/1 7/3/1 8/4/1
f 9/1/1 10/2/1 11/3/1 12/4/1
f 13/1/1 14/2/1 15/3/1 16/4/1
f 17/1/1 18/2/1 19/3/1 20/4/1
f 21/1/1 22/2/1 23/3/1 24/4/1
f 25/1/1 26/2/1 27/3/1 28/4/1
f 29/1/1 30/2/1 31/3/1 32/4/1
f 33/1/1 34/2/1 35/3/1 36/4/1
f 37/1/1 38/2/1 39/3/1 40/4/1
f 41/1/1 42/2/1 43/3/1 44/4/1
f 45/1/1 46/2/1 47/3/1 48/4/1
f 49/1/1 50/2/1 51/3/1 52/4/1
f 53/1/1 54/2/1 55/3/1 56/4/1
f 57/1/1 58/2/1 59/3/1 60/4/1
f 61/1/1 62/2/1 63/3/1 64/4/1
f 65/1/1 66/2/1 67/3/1 68/4/1
f 69/1/1 70/2/1 71/3/1 72/4/1
f 73/1/1 74/2/1 75/3/1 76/4/1
f 77/1/1 78/2/1 79/3/1 80/4/1
f 81/1/1 82/2/1 83/3/1 84/4/1
f 85/5/1 86/4/1 87/6/1 88/7/1
f 89/4/1 90/3/1 91/8/1 92/6/1
f 93/4/1 94/3/1 95/8/1 96/6/1
f 97/4/1 98/3/1 99/8/1 100/6/1
f 101/4/1 102/3/1 103/8/1 104/6/1
f 105/4/1 106/3/1 107/8/1 108/6/1
f 109/4/1 110/3/1 111/8/1 112/6/1
f 113/4/1 114/3/1 115/8/1 116/6/1
f 117/3/1 118/9/1 119/10/1 120/8/1
f 121/4/1 122/3/1 123/8/1 124/6/1
f 125/4/1 126/3/1 127/8/1 128/6/1
f 129/4/1 130/3/1 131/8/1 132/6/1
f 133/4/1 134/3/1 135/8/1 136/6/1
f 137/4/1 138/3/1 139/8/1 140/6/1
f 141/4/1 142/3/1 143/8/1 144/6/1
f 145/4/1 146/3/1 147/8/1 148/6/1
f 149/3/1 150/9/1 151/10/1 152/8/1
f 153/9/1 154/11/1 155/12/1 156/10/1
f 157/2/1 158/13/1 159/9/1 160/3/1
f 161/1/1 162/2/1 163/3/1 164/4/1
f 165/14/1 166/1/1 167/4/1 168/5/1
f 169/13/1 170/15/1 171/11/1 172/9/1
f 173/2/1 174/13/1 175/9/1 176/3/1
f 177/1/1 178/2/1 179/3/1 180/4/1
f 181/14/1 182/1/1 183/4/1 184/5/1
f 185/13/1 186/15/1 187/11/1 188/9/1
f 189/2/1 190/13/1 191/9/1 192/3/1
f 193/1/1 194/2/1 195/3/1 196/4/1
f 197/14/1 198/1/1 199/4/1 200/5/1
f 201/13/1 202/15/1 203/11/1 204/9/1
f 205/2/1 206/13/1 207/9/1 208/3/1
f 209/1/1 210/2/1 211/3/1 212/4/1
f 213/14/1 214/1/1 215/4/1 216/5/1
f 217/13/1 218/15/1 219/11/1 220/9/1
f 221/1/1 222/2/1 223/3/1 224/4/1
f 225/1/1 226/2/1 227/3/1 228/4/1
f 229/14/1 230/1/1 231/4/1 232/5/1
f 233/13/1 234/15/1 235/11/1 236/9/1
f 237/1/1 238/2/1 239/3/1 240/4/1
f 241/1/1 242/2/1 243/3/1 244/4/1
f 245/14/1 246/1/1 247/4/1 248/5/1
f 249/13/1 250/15/1 251/11/1 252/9/1
f 253/1/1 254/2/1 255/3/1 256/4/1
f 257/1/1 258/2/1 259/3/1 260/4/1
f 261/14/1 262/1/1 263/4/1 264/5/1
f 265/13/1 266/15/1 267/11/1 268/9/1
f 269/1/1 270/2/1 271/3/1 272/4/1
f 273/1/1 274/2/1 275/3/1 276/4/1
f 277/14/1 278/1/1 279/4/1 280/5/1
f 281/13/1 282/15/1 283/11/1 284/9/1
f 285/1/1 286/2/1 287/3/1 288/4/1
f 289/1/1 290/2/1 291/3/1 292/4/1
f 293/14/1 294/1/1 295/4/1 296/5/1
f 297/13/1 298/15/1 299/11/1 300/9/1
f 301/1/1 302/2/1 303/3/1 304/4/1
f 305/1/1 306/2/1 307/3/1 308/4/1
f 309/14/1 310/1/1 311/4/1 312/5/1
f 313/13/1 314/15/1 315/11/1 316/9/1
f 317/1/1 318/2/1 319/3/1 320/4/1
f 321/1/1 322/2/1 323/3/1 324/4/1
f 325/14/1 326/1/1 327/4/1 328/5/1
f 329/13/1 330/15/1 331/11/1 332/9/1
f 333/1/1 334/2/1 335/3/1 336/4/1
f 337/1/1 338/2/1 339/3/1 340/4/1
f 341/14/1 342/1/1 343/4/1 344/5/1
f 345/13/1 346/15/1 347/11/1 348/9/1
f 349/1/1 350/2/1 351/3/1 352/4/1
f 353/1/1 354/2/1 355/3/1 356/4/1
f 357/14/1 358/1/1 359/4/1 360/5/1
f 361/13/1 362/15/1 363/11/1 364/9/1
f 365/1/1 366/2/1 367/3/1 368/4/1
f 369/1/1 370/2/1 371/3/1 372/4/1
f 373/14/1 374/1/1 375/4/1 376/5/1
f 377/13/1 378/15/1 379/11/1 380/9/1
f 381/1/1 382/2/1 383/3/1 384/4/1
f 385/1/1 386/2/1 387/3/1 388/4/1
f 389/14/1 390/1/1 391/4/1 392/5/1
f 393/13/1 394/15/1 395/11/1 396/9/1
f 397/1/1 398/2/1 399/3/1 400/4/1
f 401/1/1 402/2/1 403/3/1 404/4/1
f 405/14/1 406/1/1 407/4/1 408/5/1
f 409/13/1 410/15/1 411/11/1 412/9/1
f 413/1/1 414/2/1 415/3/1 416/4/1
f 417/1/1 418/2/1 419/3/1 420/4/1
f 421/14/1 422/1/1 423/4/1 424/5/1
f 425/13/1 426/15/1 427/11/1 428/9/1
f 429/1/1 430/2/1 431/3/1 432/4/1
f 433/1/1 434/2/1 435/3/1 436/4/1
f 437/14/1 438/1/1 439/4/1 440/5/1
f 441/13/1 442/15/1 443/11/1 444/9/1
f 445/1/1 446/2/1 447/3/1 448/4/1
f 449/1/1 450/2/1 451/3/1 452/4/1
f 453/14/1 454/1/1 455/4/1 456/5/1
f 457/13/1 458/15/1 459/11/1 460/9/1
f 461/1/1 462/2/1 463/3/1 464/4/1
f 465/1/1 466/2/1 467/3/1 468/4/1
f 469/14/1 470/1/1 471/4/1 472/5/1
f 473/13/1 474/15/1 475/11/1 476/9/1
f 477/1/1 478/2/1 479/3/1 480/4/1
f 481/1/1 482/2/1 483/3/1 484/4/1
f 485/14/1 486/1/1 487/4/1 488/5/1
f 489/13/1 490/15/1 491/11/1 492/9/1
f 493/1/1 494/2/1 495/3/1 496/4/1
f 497/1/1 498/2/1 499/3/1 500/4/1
f 501/14/1 502/1/1 503/4/1 504/5/1
f 505/13/1 506/15/1 507/11/1 508/9/1
f 509/1/1 510/2/1 511/3/1 512/4/1
f 513/1/1 514/2/1 515/3/1 516/4/1
f 517/14/1 518/1/1 519/4/1 520/5/1
f 521/13/1 522/15/1 523/11/1 524/9/1
f 525/1/1 526/2/1 527/3/1 528/4/1
f 529/1/1 530/2/1 531/3/1 532/4/1
f 533/14/1 534/1/1 535/4/1 536/5/1
f 537/13/1 538/15/1 539/11/1 540/9/1
f 541/1/1 542/2/1 543/3/1 544/4/1
f 545/1/1 546/2/1 547/3/1 548/4/1
f 549/14/1 550/1/1 551/4/1 552/5/1
f 553/13/1 554/15/1 555/11/1 556/9/1
f 557/1/1 558/2/1 559/3/1 560/4/1
f 561/1/1 562/2/1 563/3/1 564/4/1
f 565/14/1 566/1/1 567/4/1 568/5/1
f 569/13/1 570/15/1 571/11/1 572/9/1
f 573/1/1 574/2/1 575/3/1 576/4/1
f 577/1/1 578/2/1 579/3/1 580/4/1
f 581/16/1 582/17/1 583/1/1 584/14/1
f 585/18/1 586/19/1 587/20/1 588/21/1
f 589/18/1 590/19/1 591/20/1 592/21/1
f 593/18/1 594/19/1 595/20/1 596/21/1
f 597/18/1 598/19/1 599/20/1 600/21/1
f 601/18/1 602/19/1 603/20/1 604/21/1
f 605/18/1 606/19/1 607/20/1 608/21/1
f 609/18/1 610/19/1 611/20/1 612/21/1
f 613/22/1 614/23/1 615/24/1 616/25/1
f 617/26/1 618/27/1 619/28/1 620/29/1
f 621/30/1 622/18/1 623/21/1 624/31/1
f 625/30/1 626/18/1 627/21/1 628/31/1
f 629/30/1 630/18/1 631/21/1 632/31/1
f 633/18/1 634/19/1 635/20/1 636/21/1
f 637/32/1 638/33/1 639/15/1 640/13/1
f 641/2/1 642/13/1 643/9/1 644/3/1
f 645/1/1 646/2/1 647/3/1 648/4/1
f 649/1/1 650/2/1 651/3/1 652/4/1
f 653/1/1 654/2/1 655/3/1 656/4/1
f 657/1/1 658/2/1 659/3/1 660/4/1
f 661/1/1 662/2/1 663/3/1 664/4/1
f 665/1/1 666/2/1 667/3/1 668/4/1
f 669/1/1 670/2/1 671/3/1 672/4/1
f 673/1/1 674/2/1 675/3/1 676/4/1
f 677/1/1 678/2/1 679/3/1 680/4/1
f 681/14/1 682/1/1 683/4/1 684/5/1
f 685/13/1 686/15/1 687/11/1 688/9/1
f 689/1/1 690/2/1 691/3/1 692/4/1
f 693/1/1 694/2/1 695/3/1 696/4/1
f 697/1/1 698/2/1 699/3/1 700/4/1
f 701/1/1 702/2/1 703/3/1 704/4/1
f 705/1/1 706/2/1 707/3/1 708/4/1
f 709/1/1 710/2/1 711/3/1 712/4/1

