# Tiled2Unity generated file. Do not modify by hand.
# Wavefront file for 'Escena5_mesh_0004.obj'

# Vertices (Count = 228)
v -51 -2 0
v -52 -2 0
v -52 -1 0
v -51 -1 0
v -58 -2 0
v -59 -2 0
v -59 -1 0
v -58 -1 0
v -51 -3 0
v -52 -3 0
v -52 -2 0
v -51 -2 0
v -58 -3 0
v -59 -3 0
v -59 -2 0
v -58 -2 0
v -51 -4 0
v -52 -4 0
v -52 -3 0
v -51 -3 0
v -58 -4 0
v -59 -4 0
v -59 -3 0
v -58 -3 0
v -51 -5 0
v -52 -5 0
v -52 -4 0
v -51 -4 0
v -58 -5 0
v -59 -5 0
v -59 -4 0
v -58 -4 0
v -51 -6 0
v -52 -6 0
v -52 -5 0
v -51 -5 0
v -58 -6 0
v -59 -6 0
v -59 -5 0
v -58 -5 0
v -51 -7 0
v -52 -7 0
v -52 -6 0
v -51 -6 0
v -58 -7 0
v -59 -7 0
v -59 -6 0
v -58 -6 0
v -51 -8 0
v -52 -8 0
v -52 -7 0
v -51 -7 0
v -58 -8 0
v -59 -8 0
v -59 -7 0
v -58 -7 0
v -51 -9 0
v -52 -9 0
v -52 -8 0
v -51 -8 0
v -58 -9 0
v -59 -9 0
v -59 -8 0
v -58 -8 0
v -51 -10 0
v -52 -10 0
v -52 -9 0
v -51 -9 0
v -58 -10 0
v -59 -10 0
v -59 -9 0
v -58 -9 0
v -51 -11 0
v -52 -11 0
v -52 -10 0
v -51 -10 0
v -58 -11 0
v -59 -11 0
v -59 -10 0
v -58 -10 0
v -51 -12 0
v -52 -12 0
v -52 -11 0
v -51 -11 0
v -54 -12 0
v -55 -12 0
v -55 -11 0
v -54 -11 0
v -55 -12 0
v -56 -12 0
v -56 -11 0
v -55 -11 0
v -58 -12 0
v -59 -12 0
v -59 -11 0
v -58 -11 0
v -51 -13 0
v -52 -13 0
v -52 -12 0
v -51 -12 0
v -53 -13 0
v -54 -13 0
v -54 -12 0
v -53 -12 0
v -54 -13 0
v -55 -13 0
v -55 -12 0
v -54 -12 0
v -55 -13 0
v -56 -13 0
v -56 -12 0
v -55 -12 0
v -56 -13 0
v -57 -13 0
v -57 -12 0
v -56 -12 0
v -58 -13 0
v -59 -13 0
v -59 -12 0
v -58 -12 0
v -51 -14 0
v -52 -14 0
v -52 -13 0
v -51 -13 0
v -52 -14 0
v -53 -14 0
v -53 -13 0
v -52 -13 0
v -53 -14 0
v -54 -14 0
v -54 -13 0
v -53 -13 0
v -54 -14 0
v -55 -14 0
v -55 -13 0
v -54 -13 0
v -55 -14 0
v -56 -14 0
v -56 -13 0
v -55 -13 0
v -56 -14 0
v -57 -14 0
v -57 -13 0
v -56 -13 0
v -57 -14 0
v -58 -14 0
v -58 -13 0
v -57 -13 0
v -58 -14 0
v -59 -14 0
v -59 -13 0
v -58 -13 0
v -51 -15 0
v -52 -15 0
v -52 -14 0
v -51 -14 0
v -52 -15 0
v -53 -15 0
v -53 -14 0
v -52 -14 0
v -53 -15 0
v -54 -15 0
v -54 -14 0
v -53 -14 0
v -54 -15 0
v -55 -15 0
v -55 -14 0
v -54 -14 0
v -55 -15 0
v -56 -15 0
v -56 -14 0
v -55 -14 0
v -56 -15 0
v -57 -15 0
v -57 -14 0
v -56 -14 0
v -57 -15 0
v -58 -15 0
v -58 -14 0
v -57 -14 0
v -58 -15 0
v -59 -15 0
v -59 -14 0
v -58 -14 0
v -51 -16 0
v -52 -16 0
v -52 -15 0
v -51 -15 0
v -52 -16 0
v -53 -16 0
v -53 -15 0
v -52 -15 0
v -53 -16 0
v -54 -16 0
v -54 -15 0
v -53 -15 0
v -54 -16 0
v -55 -16 0
v -55 -15 0
v -54 -15 0
v -55 -16 0
v -56 -16 0
v -56 -15 0
v -55 -15 0
v -56 -16 0
v -57 -16 0
v -57 -15 0
v -56 -15 0
v -57 -16 0
v -58 -16 0
v -58 -15 0
v -57 -15 0
v -58 -16 0
v -59 -16 0
v -59 -15 0
v -58 -15 0
v -51 -17 0
v -52 -17 0
v -52 -16 0
v -51 -16 0
v -52 -17 0
v -53 -17 0
v -53 -16 0
v -52 -16 0
v -58 -17 0
v -59 -17 0
v -59 -16 0
v -58 -16 0

# Texture cooridinates (Count = 10)
vt 0.625 0.375
vt 0.65 0.375
vt 0.65 0.4
vt 0.625 0.4
vt 0.425 0.95
vt 0.45 0.95
vt 0.45 0.975
vt 0.425 0.975
vt 0.475 0.95
vt 0.475 0.975

# Normal
vn 0 0 -1

# Mesh description
g Escena5_mesh_0004

# Faces
f 1/1/1 2/2/1 3/3/1 4/4/1
f 5/1/1 6/2/1 7/3/1 8/4/1
f 9/1/1 10/2/1 11/3/1 12/4/1
f 13/1/1 14/2/1 15/3/1 16/4/1
f 17/1/1 18/2/1 19/3/1 20/4/1
f 21/1/1 22/2/1 23/3/1 24/4/1
f 25/1/1 26/2/1 27/3/1 28/4/1
f 29/1/1 30/2/1 31/3/1 32/4/1
f 33/5/1 34/6/1 35/7/1 36/8/1
f 37/1/1 38/2/1 39/3/1 40/4/1
f 41/1/1 42/2/1 43/3/1 44/4/1
f 45/1/1 46/2/1 47/3/1 48/4/1
f 49/1/1 50/2/1 51/3/1 52/4/1
f 53/1/1 54/2/1 55/3/1 56/4/1
f 57/5/1 58/6/1 59/7/1 60/8/1
f 61/1/1 62/2/1 63/3/1 64/4/1
f 65/1/1 66/2/1 67/3/1 68/4/1
f 69/1/1 70/2/1 71/3/1 72/4/1
f 73/1/1 74/2/1 75/3/1 76/4/1
f 77/1/1 78/2/1 79/3/1 80/4/1
f 81/5/1 82/6/1 83/7/1 84/8/1
f 85/1/1 86/2/1 87/3/1 88/4/1
f 89/1/1 90/2/1 91/3/1 92/4/1
f 93/1/1 94/2/1 95/3/1 96/4/1
f 97/1/1 98/2/1 99/3/1 100/4/1
f 101/1/1 102/2/1 103/3/1 104/4/1
f 105/1/1 106/2/1 107/3/1 108/4/1
f 109/1/1 110/2/1 111/3/1 112/4/1
f 113/1/1 114/2/1 115/3/1 116/4/1
f 117/1/1 118/2/1 119/3/1 120/4/1
f 121/1/1 122/2/1 123/3/1 124/4/1
f 125/1/1 126/2/1 127/3/1 128/4/1
f 129/5/1 130/6/1 131/7/1 132/8/1
f 133/1/1 134/2/1 135/3/1 136/4/1
f 137/1/1 138/2/1 139/3/1 140/4/1
f 141/6/1 142/9/1 143/10/1 144/7/1
f 145/1/1 146/2/1 147/3/1 148/4/1
f 149/1/1 150/2/1 151/3/1 152/4/1
f 153/1/1 154/2/1 155/3/1 156/4/1
f 157/1/1 158/2/1 159/3/1 160/4/1
f 161/5/1 162/6/1 163/7/1 164/8/1
f 165/1/1 166/2/1 167/3/1 168/4/1
f 169/1/1 170/2/1 171/3/1 172/4/1
f 173/5/1 174/6/1 175/7/1 176/8/1
f 177/1/1 178/2/1 179/3/1 180/4/1
f 181/1/1 182/2/1 183/3/1 184/4/1
f 185/1/1 186/2/1 187/3/1 188/4/1
f 189/1/1 190/2/1 191/3/1 192/4/1
f 193/1/1 194/2/1 195/3/1 196/4/1
f 197/5/1 198/6/1 199/7/1 200/8/1
f 201/5/1 202/6/1 203/7/1 204/8/1
f 205/1/1 206/2/1 207/3/1 208/4/1
f 209/1/1 210/2/1 211/3/1 212/4/1
f 213/1/1 214/2/1 215/3/1 216/4/1
f 217/1/1 218/2/1 219/3/1 220/4/1
f 221/1/1 222/2/1 223/3/1 224/4/1
f 225/1/1 226/2/1 227/3/1 228/4/1

