# Tiled2Unity generated file. Do not modify by hand.
# Wavefront file for 'Escena5_mesh_0006.obj'

# Vertices (Count = 88)
v -51 -15 0
v -52 -15 0
v -52 -14 0
v -51 -14 0
v -52 -15 0
v -53 -15 0
v -53 -14 0
v -52 -14 0
v -53 -15 0
v -54 -15 0
v -54 -14 0
v -53 -14 0
v -54 -15 0
v -55 -15 0
v -55 -14 0
v -54 -14 0
v -55 -15 0
v -56 -15 0
v -56 -14 0
v -55 -14 0
v -56 -15 0
v -57 -15 0
v -57 -14 0
v -56 -14 0
v -57 -15 0
v -58 -15 0
v -58 -14 0
v -57 -14 0
v -58 -15 0
v -59 -15 0
v -59 -14 0
v -58 -14 0
v -51 -16 0
v -52 -16 0
v -52 -15 0
v -51 -15 0
v -52 -16 0
v -53 -16 0
v -53 -15 0
v -52 -15 0
v -53 -16 0
v -54 -16 0
v -54 -15 0
v -53 -15 0
v -54 -16 0
v -55 -16 0
v -55 -15 0
v -54 -15 0
v -55 -16 0
v -56 -16 0
v -56 -15 0
v -55 -15 0
v -56 -16 0
v -57 -16 0
v -57 -15 0
v -56 -15 0
v -57 -16 0
v -58 -16 0
v -58 -15 0
v -57 -15 0
v -58 -16 0
v -59 -16 0
v -59 -15 0
v -58 -15 0
v -52 -17 0
v -53 -17 0
v -53 -16 0
v -52 -16 0
v -53 -17 0
v -54 -17 0
v -54 -16 0
v -53 -16 0
v -54 -17 0
v -55 -17 0
v -55 -16 0
v -54 -16 0
v -55 -17 0
v -56 -17 0
v -56 -16 0
v -55 -16 0
v -56 -17 0
v -57 -17 0
v -57 -16 0
v -56 -16 0
v -57 -17 0
v -58 -17 0
v -58 -16 0
v -57 -16 0

# Texture cooridinates (Count = 14)
vt 0.625 0.375
vt 0.65 0.375
vt 0.65 0.4
vt 0.625 0.4
vt 0.425 0.95
vt 0.45 0.95
vt 0.45 0.975
vt 0.425 0.975
vt 0.6 0.375
vt 0.6 0.4
vt 0.7 0.375
vt 0.725 0.375
vt 0.725 0.4
vt 0.7 0.4

# Normal
vn 0 0 -1

# Mesh description
g Escena5_mesh_0006

# Faces
f 1/1/1 2/2/1 3/3/1 4/4/1
f 5/1/1 6/2/1 7/3/1 8/4/1
f 9/1/1 10/2/1 11/3/1 12/4/1
f 13/1/1 14/2/1 15/3/1 16/4/1
f 17/1/1 18/2/1 19/3/1 20/4/1
f 21/1/1 22/2/1 23/3/1 24/4/1
f 25/1/1 26/2/1 27/3/1 28/4/1
f 29/1/1 30/2/1 31/3/1 32/4/1
f 33/1/1 34/2/1 35/3/1 36/4/1
f 37/1/1 38/2/1 39/3/1 40/4/1
f 41/1/1 42/2/1 43/3/1 44/4/1
f 45/5/1 46/6/1 47/7/1 48/8/1
f 49/5/1 50/6/1 51/7/1 52/8/1
f 53/9/1 54/1/1 55/4/1 56/10/1
f 57/1/1 58/2/1 59/3/1 60/4/1
f 61/1/1 62/2/1 63/3/1 64/4/1
f 65/9/1 66/1/1 67/4/1 68/10/1
f 69/9/1 70/1/1 71/4/1 72/10/1
f 73/5/1 74/6/1 75/7/1 76/8/1
f 77/5/1 78/6/1 79/7/1 80/8/1
f 81/9/1 82/1/1 83/4/1 84/10/1
f 85/11/1 86/12/1 87/13/1 88/14/1

