# Tiled2Unity generated file. Do not modify by hand.
# Wavefront file for 'Escena5_mesh_0005.obj'

# Vertices (Count = 448)
v -51 -1 0
v -52 -1 0
v -52 0 0
v -51 0 0
v -52 -1 0
v -53 -1 0
v -53 0 0
v -52 0 0
v -53 -1 0
v -54 -1 0
v -54 0 0
v -53 0 0
v -54 -1 0
v -55 -1 0
v -55 0 0
v -54 0 0
v -55 -1 0
v -56 -1 0
v -56 0 0
v -55 0 0
v -56 -1 0
v -57 -1 0
v -57 0 0
v -56 0 0
v -57 -1 0
v -58 -1 0
v -58 0 0
v -57 0 0
v -58 -1 0
v -59 -1 0
v -59 0 0
v -58 0 0
v -51 -2 0
v -52 -2 0
v -52 -1 0
v -51 -1 0
v -52 -2 0
v -53 -2 0
v -53 -1 0
v -52 -1 0
v -53 -2 0
v -54 -2 0
v -54 -1 0
v -53 -1 0
v -54 -2 0
v -55 -2 0
v -55 -1 0
v -54 -1 0
v -55 -2 0
v -56 -2 0
v -56 -1 0
v -55 -1 0
v -56 -2 0
v -57 -2 0
v -57 -1 0
v -56 -1 0
v -57 -2 0
v -58 -2 0
v -58 -1 0
v -57 -1 0
v -58 -2 0
v -59 -2 0
v -59 -1 0
v -58 -1 0
v -51 -3 0
v -52 -3 0
v -52 -2 0
v -51 -2 0
v -52 -3 0
v -53 -3 0
v -53 -2 0
v -52 -2 0
v -53 -3 0
v -54 -3 0
v -54 -2 0
v -53 -2 0
v -54 -3 0
v -55 -3 0
v -55 -2 0
v -54 -2 0
v -55 -3 0
v -56 -3 0
v -56 -2 0
v -55 -2 0
v -56 -3 0
v -57 -3 0
v -57 -2 0
v -56 -2 0
v -57 -3 0
v -58 -3 0
v -58 -2 0
v -57 -2 0
v -58 -3 0
v -59 -3 0
v -59 -2 0
v -58 -2 0
v -51 -4 0
v -52 -4 0
v -52 -3 0
v -51 -3 0
v -52 -4 0
v -53 -4 0
v -53 -3 0
v -52 -3 0
v -53 -4 0
v -54 -4 0
v -54 -3 0
v -53 -3 0
v -54 -4 0
v -55 -4 0
v -55 -3 0
v -54 -3 0
v -55 -4 0
v -56 -4 0
v -56 -3 0
v -55 -3 0
v -56 -4 0
v -57 -4 0
v -57 -3 0
v -56 -3 0
v -57 -4 0
v -58 -4 0
v -58 -3 0
v -57 -3 0
v -58 -4 0
v -59 -4 0
v -59 -3 0
v -58 -3 0
v -51 -5 0
v -52 -5 0
v -52 -4 0
v -51 -4 0
v -52 -5 0
v -53 -5 0
v -53 -4 0
v -52 -4 0
v -53 -5 0
v -54 -5 0
v -54 -4 0
v -53 -4 0
v -54 -5 0
v -55 -5 0
v -55 -4 0
v -54 -4 0
v -55 -5 0
v -56 -5 0
v -56 -4 0
v -55 -4 0
v -56 -5 0
v -57 -5 0
v -57 -4 0
v -56 -4 0
v -57 -5 0
v -58 -5 0
v -58 -4 0
v -57 -4 0
v -58 -5 0
v -59 -5 0
v -59 -4 0
v -58 -4 0
v -51 -6 0
v -52 -6 0
v -52 -5 0
v -51 -5 0
v -52 -6 0
v -53 -6 0
v -53 -5 0
v -52 -5 0
v -53 -6 0
v -54 -6 0
v -54 -5 0
v -53 -5 0
v -54 -6 0
v -55 -6 0
v -55 -5 0
v -54 -5 0
v -55 -6 0
v -56 -6 0
v -56 -5 0
v -55 -5 0
v -56 -6 0
v -57 -6 0
v -57 -5 0
v -56 -5 0
v -57 -6 0
v -58 -6 0
v -58 -5 0
v -57 -5 0
v -58 -6 0
v -59 -6 0
v -59 -5 0
v -58 -5 0
v -51 -7 0
v -52 -7 0
v -52 -6 0
v -51 -6 0
v -52 -7 0
v -53 -7 0
v -53 -6 0
v -52 -6 0
v -53 -7 0
v -54 -7 0
v -54 -6 0
v -53 -6 0
v -54 -7 0
v -55 -7 0
v -55 -6 0
v -54 -6 0
v -55 -7 0
v -56 -7 0
v -56 -6 0
v -55 -6 0
v -56 -7 0
v -57 -7 0
v -57 -6 0
v -56 -6 0
v -57 -7 0
v -58 -7 0
v -58 -6 0
v -57 -6 0
v -58 -7 0
v -59 -7 0
v -59 -6 0
v -58 -6 0
v -51 -8 0
v -52 -8 0
v -52 -7 0
v -51 -7 0
v -52 -8 0
v -53 -8 0
v -53 -7 0
v -52 -7 0
v -53 -8 0
v -54 -8 0
v -54 -7 0
v -53 -7 0
v -54 -8 0
v -55 -8 0
v -55 -7 0
v -54 -7 0
v -55 -8 0
v -56 -8 0
v -56 -7 0
v -55 -7 0
v -56 -8 0
v -57 -8 0
v -57 -7 0
v -56 -7 0
v -57 -8 0
v -58 -8 0
v -58 -7 0
v -57 -7 0
v -58 -8 0
v -59 -8 0
v -59 -7 0
v -58 -7 0
v -51 -9 0
v -52 -9 0
v -52 -8 0
v -51 -8 0
v -52 -9 0
v -53 -9 0
v -53 -8 0
v -52 -8 0
v -53 -9 0
v -54 -9 0
v -54 -8 0
v -53 -8 0
v -54 -9 0
v -55 -9 0
v -55 -8 0
v -54 -8 0
v -55 -9 0
v -56 -9 0
v -56 -8 0
v -55 -8 0
v -56 -9 0
v -57 -9 0
v -57 -8 0
v -56 -8 0
v -57 -9 0
v -58 -9 0
v -58 -8 0
v -57 -8 0
v -58 -9 0
v -59 -9 0
v -59 -8 0
v -58 -8 0
v -51 -10 0
v -52 -10 0
v -52 -9 0
v -51 -9 0
v -52 -10 0
v -53 -10 0
v -53 -9 0
v -52 -9 0
v -53 -10 0
v -54 -10 0
v -54 -9 0
v -53 -9 0
v -54 -10 0
v -55 -10 0
v -55 -9 0
v -54 -9 0
v -55 -10 0
v -56 -10 0
v -56 -9 0
v -55 -9 0
v -56 -10 0
v -57 -10 0
v -57 -9 0
v -56 -9 0
v -57 -10 0
v -58 -10 0
v -58 -9 0
v -57 -9 0
v -58 -10 0
v -59 -10 0
v -59 -9 0
v -58 -9 0
v -51 -11 0
v -52 -11 0
v -52 -10 0
v -51 -10 0
v -52 -11 0
v -53 -11 0
v -53 -10 0
v -52 -10 0
v -53 -11 0
v -54 -11 0
v -54 -10 0
v -53 -10 0
v -54 -11 0
v -55 -11 0
v -55 -10 0
v -54 -10 0
v -55 -11 0
v -56 -11 0
v -56 -10 0
v -55 -10 0
v -56 -11 0
v -57 -11 0
v -57 -10 0
v -56 -10 0
v -57 -11 0
v -58 -11 0
v -58 -10 0
v -57 -10 0
v -58 -11 0
v -59 -11 0
v -59 -10 0
v -58 -10 0
v -51 -12 0
v -52 -12 0
v -52 -11 0
v -51 -11 0
v -52 -12 0
v -53 -12 0
v -53 -11 0
v -52 -11 0
v -53 -12 0
v -54 -12 0
v -54 -11 0
v -53 -11 0
v -54 -12 0
v -55 -12 0
v -55 -11 0
v -54 -11 0
v -55 -12 0
v -56 -12 0
v -56 -11 0
v -55 -11 0
v -56 -12 0
v -57 -12 0
v -57 -11 0
v -56 -11 0
v -57 -12 0
v -58 -12 0
v -58 -11 0
v -57 -11 0
v -58 -12 0
v -59 -12 0
v -59 -11 0
v -58 -11 0
v -51 -13 0
v -52 -13 0
v -52 -12 0
v -51 -12 0
v -52 -13 0
v -53 -13 0
v -53 -12 0
v -52 -12 0
v -53 -13 0
v -54 -13 0
v -54 -12 0
v -53 -12 0
v -54 -13 0
v -55 -13 0
v -55 -12 0
v -54 -12 0
v -55 -13 0
v -56 -13 0
v -56 -12 0
v -55 -12 0
v -56 -13 0
v -57 -13 0
v -57 -12 0
v -56 -12 0
v -57 -13 0
v -58 -13 0
v -58 -12 0
v -57 -12 0
v -58 -13 0
v -59 -13 0
v -59 -12 0
v -58 -12 0
v -51 -14 0
v -52 -14 0
v -52 -13 0
v -51 -13 0
v -52 -14 0
v -53 -14 0
v -53 -13 0
v -52 -13 0
v -53 -14 0
v -54 -14 0
v -54 -13 0
v -53 -13 0
v -54 -14 0
v -55 -14 0
v -55 -13 0
v -54 -13 0
v -55 -14 0
v -56 -14 0
v -56 -13 0
v -55 -13 0
v -56 -14 0
v -57 -14 0
v -57 -13 0
v -56 -13 0
v -57 -14 0
v -58 -14 0
v -58 -13 0
v -57 -13 0
v -58 -14 0
v -59 -14 0
v -59 -13 0
v -58 -13 0

# Texture cooridinates (Count = 75)
vt 0.15625 0.96875
vt 0.1875 0.96875
vt 0.1875 1
vt 0.15625 1
vt 0.21875 0.96875
vt 0.21875 1
vt 0.25 0.96875
vt 0.25 1
vt 0.28125 0.96875
vt 0.28125 1
vt 0.3125 0.96875
vt 0.3125 1
vt 0.34375 0.96875
vt 0.34375 1
vt 0.375 0.96875
vt 0.375 1
vt 0.40625 0.96875
vt 0.40625 1
vt 0.15625 0.9375
vt 0.1875 0.9375
vt 0.21875 0.9375
vt 0.25 0.9375
vt 0.28125 0.9375
vt 0.3125 0.9375
vt 0.34375 0.9375
vt 0.375 0.9375
vt 0.40625 0.9375
vt 0.15625 0.90625
vt 0.1875 0.90625
vt 0.21875 0.90625
vt 0.25 0.90625
vt 0.28125 0.90625
vt 0.3125 0.90625
vt 0.34375 0.90625
vt 0.375 0.90625
vt 0.40625 0.90625
vt 0.6875 0.84375
vt 0.71875 0.84375
vt 0.71875 0.875
vt 0.6875 0.875
vt 0.75 0.84375
vt 0.75 0.875
vt 0.59375 0.8125
vt 0.625 0.8125
vt 0.625 0.84375
vt 0.59375 0.84375
vt 0.65625 0.8125
vt 0.65625 0.84375
vt 0.6875 0.8125
vt 0.71875 0.8125
vt 0.75 0.8125
vt 0.78125 0.8125
vt 0.78125 0.84375
vt 0.8125 0.8125
vt 0.8125 0.84375
vt 0.84375 0.8125
vt 0.84375 0.84375
vt 0.59375 0.78125
vt 0.625 0.78125
vt 0.65625 0.78125
vt 0.6875 0.78125
vt 0.71875 0.78125
vt 0.75 0.78125
vt 0.78125 0.78125
vt 0.8125 0.78125
vt 0.84375 0.78125
vt 0.59375 0.75
vt 0.625 0.75
vt 0.65625 0.75
vt 0.6875 0.75
vt 0.71875 0.75
vt 0.75 0.75
vt 0.78125 0.75
vt 0.8125 0.75
vt 0.84375 0.75

# Normal
vn 0 0 -1

# Mesh description
g Escena5_mesh_0005

# Faces
f 1/1/1 2/2/1 3/3/1 4/4/1
f 5/2/1 6/5/1 7/6/1 8/3/1
f 9/5/1 10/7/1 11/8/1 12/6/1
f 13/7/1 14/9/1 15/10/1 16/8/1
f 17/9/1 18/11/1 19/12/1 20/10/1
f 21/11/1 22/13/1 23/14/1 24/12/1
f 25/13/1 26/15/1 27/16/1 28/14/1
f 29/15/1 30/17/1 31/18/1 32/16/1
f 33/19/1 34/20/1 35/2/1 36/1/1
f 37/20/1 38/21/1 39/5/1 40/2/1
f 41/21/1 42/22/1 43/7/1 44/5/1
f 45/22/1 46/23/1 47/9/1 48/7/1
f 49/23/1 50/24/1 51/11/1 52/9/1
f 53/24/1 54/25/1 55/13/1 56/11/1
f 57/25/1 58/26/1 59/15/1 60/13/1
f 61/26/1 62/27/1 63/17/1 64/15/1
f 65/19/1 66/20/1 67/2/1 68/1/1
f 69/20/1 70/21/1 71/5/1 72/2/1
f 73/21/1 74/22/1 75/7/1 76/5/1
f 77/22/1 78/23/1 79/9/1 80/7/1
f 81/23/1 82/24/1 83/11/1 84/9/1
f 85/24/1 86/25/1 87/13/1 88/11/1
f 89/25/1 90/26/1 91/15/1 92/13/1
f 93/26/1 94/27/1 95/17/1 96/15/1
f 97/28/1 98/29/1 99/20/1 100/19/1
f 101/29/1 102/30/1 103/21/1 104/20/1
f 105/30/1 106/31/1 107/22/1 108/21/1
f 109/31/1 110/32/1 111/23/1 112/22/1
f 113/32/1 114/33/1 115/24/1 116/23/1
f 117/33/1 118/34/1 119/25/1 120/24/1
f 121/34/1 122/35/1 123/26/1 124/25/1
f 125/35/1 126/36/1 127/27/1 128/26/1
f 129/28/1 130/29/1 131/20/1 132/19/1
f 133/29/1 134/30/1 135/21/1 136/20/1
f 137/30/1 138/31/1 139/22/1 140/21/1
f 141/31/1 142/32/1 143/23/1 144/22/1
f 145/32/1 146/33/1 147/24/1 148/23/1
f 149/33/1 150/34/1 151/25/1 152/24/1
f 153/34/1 154/35/1 155/26/1 156/25/1
f 157/35/1 158/36/1 159/27/1 160/26/1
f 161/28/1 162/29/1 163/20/1 164/19/1
f 165/29/1 166/30/1 167/21/1 168/20/1
f 169/30/1 170/31/1 171/22/1 172/21/1
f 173/31/1 174/32/1 175/23/1 176/22/1
f 177/32/1 178/33/1 179/24/1 180/23/1
f 181/33/1 182/34/1 183/25/1 184/24/1
f 185/34/1 186/35/1 187/26/1 188/25/1
f 189/35/1 190/36/1 191/27/1 192/26/1
f 193/28/1 194/29/1 195/20/1 196/19/1
f 197/29/1 198/30/1 199/21/1 200/20/1
f 201/30/1 202/31/1 203/22/1 204/21/1
f 205/31/1 206/32/1 207/23/1 208/22/1
f 209/32/1 210/33/1 211/24/1 212/23/1
f 213/33/1 214/34/1 215/25/1 216/24/1
f 217/34/1 218/35/1 219/26/1 220/25/1
f 221/35/1 222/36/1 223/27/1 224/26/1
f 225/28/1 226/29/1 227/20/1 228/19/1
f 229/29/1 230/30/1 231/21/1 232/20/1
f 233/30/1 234/31/1 235/22/1 236/21/1
f 237/31/1 238/32/1 239/23/1 240/22/1
f 241/32/1 242/33/1 243/24/1 244/23/1
f 245/33/1 246/34/1 247/25/1 248/24/1
f 249/34/1 250/35/1 251/26/1 252/25/1
f 253/35/1 254/36/1 255/27/1 256/26/1
f 257/28/1 258/29/1 259/20/1 260/19/1
f 261/29/1 262/30/1 263/21/1 264/20/1
f 265/30/1 266/31/1 267/22/1 268/21/1
f 269/31/1 270/32/1 271/23/1 272/22/1
f 273/32/1 274/33/1 275/24/1 276/23/1
f 277/33/1 278/34/1 279/25/1 280/24/1
f 281/34/1 282/35/1 283/26/1 284/25/1
f 285/35/1 286/36/1 287/27/1 288/26/1
f 289/28/1 290/29/1 291/20/1 292/19/1
f 293/29/1 294/30/1 295/21/1 296/20/1
f 297/30/1 298/31/1 299/22/1 300/21/1
f 301/31/1 302/32/1 303/23/1 304/22/1
f 305/32/1 306/33/1 307/24/1 308/23/1
f 309/33/1 310/34/1 311/25/1 312/24/1
f 313/34/1 314/35/1 315/26/1 316/25/1
f 317/35/1 318/36/1 319/27/1 320/26/1
f 321/28/1 322/29/1 323/20/1 324/19/1
f 325/29/1 326/30/1 327/21/1 328/20/1
f 329/30/1 330/31/1 331/22/1 332/21/1
f 333/37/1 334/38/1 335/39/1 336/40/1
f 337/38/1 338/41/1 339/42/1 340/39/1
f 341/33/1 342/34/1 343/25/1 344/24/1
f 345/34/1 346/35/1 347/26/1 348/25/1
f 349/35/1 350/36/1 351/27/1 352/26/1
f 353/43/1 354/44/1 355/45/1 356/46/1
f 357/44/1 358/47/1 359/48/1 360/45/1
f 361/47/1 362/49/1 363/37/1 364/48/1
f 365/49/1 366/50/1 367/38/1 368/37/1
f 369/50/1 370/51/1 371/41/1 372/38/1
f 373/51/1 374/52/1 375/53/1 376/41/1
f 377/52/1 378/54/1 379/55/1 380/53/1
f 381/54/1 382/56/1 383/57/1 384/55/1
f 385/58/1 386/59/1 387/44/1 388/43/1
f 389/59/1 390/60/1 391/47/1 392/44/1
f 393/60/1 394/61/1 395/49/1 396/47/1
f 397/61/1 398/62/1 399/50/1 400/49/1
f 401/62/1 402/63/1 403/51/1 404/50/1
f 405/63/1 406/64/1 407/52/1 408/51/1
f 409/64/1 410/65/1 411/54/1 412/52/1
f 413/65/1 414/66/1 415/56/1 416/54/1
f 417/67/1 418/68/1 419/59/1 420/58/1
f 421/68/1 422/69/1 423/60/1 424/59/1
f 425/69/1 426/70/1 427/61/1 428/60/1
f 429/70/1 430/71/1 431/62/1 432/61/1
f 433/71/1 434/72/1 435/63/1 436/62/1
f 437/72/1 438/73/1 439/64/1 440/63/1
f 441/73/1 442/74/1 443/65/1 444/64/1
f 445/74/1 446/75/1 447/66/1 448/65/1

