# Tiled2Unity generated file. Do not modify by hand.
# Wavefront file for 'Escena2_mesh_0004.obj'

# Vertices (Count = 248)
v -9 -4 0
v -10 -4 0
v -10 -3 0
v -9 -3 0
v -10 -4 0
v -11 -4 0
v -11 -3 0
v -10 -3 0
v -11 -4 0
v -12 -4 0
v -12 -3 0
v -11 -3 0
v -12 -4 0
v -13 -4 0
v -13 -3 0
v -12 -3 0
v -13 -4 0
v -14 -4 0
v -14 -3 0
v -13 -3 0
v -14 -4 0
v -15 -4 0
v -15 -3 0
v -14 -3 0
v -1 -5 0
v -2 -5 0
v -2 -4 0
v -1 -4 0
v -2 -5 0
v -3 -5 0
v -3 -4 0
v -2 -4 0
v -3 -5 0
v -4 -5 0
v -4 -4 0
v -3 -4 0
v -4 -5 0
v -5 -5 0
v -5 -4 0
v -4 -4 0
v -5 -5 0
v -6 -5 0
v -6 -4 0
v -5 -4 0
v -6 -5 0
v -7 -5 0
v -7 -4 0
v -6 -4 0
v -9 -5 0
v -10 -5 0
v -10 -4 0
v -9 -4 0
v -10 -5 0
v -11 -5 0
v -11 -4 0
v -10 -4 0
v -11 -5 0
v -12 -5 0
v -12 -4 0
v -11 -4 0
v -12 -5 0
v -13 -5 0
v -13 -4 0
v -12 -4 0
v -13 -5 0
v -14 -5 0
v -14 -4 0
v -13 -4 0
v -14 -5 0
v -15 -5 0
v -15 -4 0
v -14 -4 0
v -1 -6 0
v -2 -6 0
v -2 -5 0
v -1 -5 0
v -2 -6 0
v -3 -6 0
v -3 -5 0
v -2 -5 0
v -3 -6 0
v -4 -6 0
v -4 -5 0
v -3 -5 0
v -4 -6 0
v -5 -6 0
v -5 -5 0
v -4 -5 0
v -5 -6 0
v -6 -6 0
v -6 -5 0
v -5 -5 0
v -6 -6 0
v -7 -6 0
v -7 -5 0
v -6 -5 0
v -9 -6 0
v -10 -6 0
v -10 -5 0
v -9 -5 0
v -10 -6 0
v -11 -6 0
v -11 -5 0
v -10 -5 0
v -11 -6 0
v -12 -6 0
v -12 -5 0
v -11 -5 0
v -12 -6 0
v -13 -6 0
v -13 -5 0
v -12 -5 0
v -13 -6 0
v -14 -6 0
v -14 -5 0
v -13 -5 0
v -14 -6 0
v -15 -6 0
v -15 -5 0
v -14 -5 0
v -1 -7 0
v -2 -7 0
v -2 -6 0
v -1 -6 0
v -2 -7 0
v -3 -7 0
v -3 -6 0
v -2 -6 0
v -3 -7 0
v -4 -7 0
v -4 -6 0
v -3 -6 0
v -4 -7 0
v -5 -7 0
v -5 -6 0
v -4 -6 0
v -5 -7 0
v -6 -7 0
v -6 -6 0
v -5 -6 0
v -6 -7 0
v -7 -7 0
v -7 -6 0
v -6 -6 0
v -9 -7 0
v -10 -7 0
v -10 -6 0
v -9 -6 0
v -10 -7 0
v -11 -7 0
v -11 -6 0
v -10 -6 0
v -11 -7 0
v -12 -7 0
v -12 -6 0
v -11 -6 0
v -12 -7 0
v -13 -7 0
v -13 -6 0
v -12 -6 0
v -13 -7 0
v -14 -7 0
v -14 -6 0
v -13 -6 0
v -14 -7 0
v -15 -7 0
v -15 -6 0
v -14 -6 0
v -1 -8 0
v -2 -8 0
v -2 -7 0
v -1 -7 0
v -2 -8 0
v -3 -8 0
v -3 -7 0
v -2 -7 0
v -5 -8 0
v -6 -8 0
v -6 -7 0
v -5 -7 0
v -6 -8 0
v -7 -8 0
v -7 -7 0
v -6 -7 0
v -9 -8 0
v -10 -8 0
v -10 -7 0
v -9 -7 0
v -10 -8 0
v -11 -8 0
v -11 -7 0
v -10 -7 0
v -11 -8 0
v -12 -8 0
v -12 -7 0
v -11 -7 0
v -12 -8 0
v -13 -8 0
v -13 -7 0
v -12 -7 0
v -13 -8 0
v -14 -8 0
v -14 -7 0
v -13 -7 0
v -14 -8 0
v -15 -8 0
v -15 -7 0
v -14 -7 0
v -1 -9 0
v -2 -9 0
v -2 -8 0
v -1 -8 0
v -2 -9 0
v -3 -9 0
v -3 -8 0
v -2 -8 0
v -5 -9 0
v -6 -9 0
v -6 -8 0
v -5 -8 0
v -6 -9 0
v -7 -9 0
v -7 -8 0
v -6 -8 0
v -9 -9 0
v -10 -9 0
v -10 -8 0
v -9 -8 0
v -10 -9 0
v -11 -9 0
v -11 -8 0
v -10 -8 0
v -11 -9 0
v -12 -9 0
v -12 -8 0
v -11 -8 0
v -12 -9 0
v -13 -9 0
v -13 -8 0
v -12 -8 0
v -13 -9 0
v -14 -9 0
v -14 -8 0
v -13 -8 0
v -14 -9 0
v -15 -9 0
v -15 -8 0
v -14 -8 0

# Texture cooridinates (Count = 88)
vt 0.0390625 0.05078125
vt 0.0703125 0.05078125
vt 0.0703125 0.08203125
vt 0.0390625 0.08203125
vt 0.07421875 0.05078125
vt 0.1054688 0.05078125
vt 0.1054688 0.08203125
vt 0.07421875 0.08203125
vt 0.109375 0.05078125
vt 0.140625 0.05078125
vt 0.140625 0.08203125
vt 0.109375 0.08203125
vt 0.1796875 0.296875
vt 0.2109375 0.296875
vt 0.2109375 0.328125
vt 0.1796875 0.328125
vt 0.2148438 0.296875
vt 0.2460938 0.296875
vt 0.2460938 0.328125
vt 0.2148438 0.328125
vt 0.25 0.015625
vt 0.28125 0.015625
vt 0.28125 0.046875
vt 0.25 0.046875
vt 0.3203125 0.296875
vt 0.3515625 0.296875
vt 0.3515625 0.328125
vt 0.3203125 0.328125
vt 0.3554688 0.296875
vt 0.3867188 0.296875
vt 0.3867188 0.328125
vt 0.3554688 0.328125
vt 0.0390625 0.015625
vt 0.0703125 0.015625
vt 0.0703125 0.046875
vt 0.0390625 0.046875
vt 0.07421875 0.015625
vt 0.1054688 0.015625
vt 0.1054688 0.046875
vt 0.07421875 0.046875
vt 0.109375 0.015625
vt 0.140625 0.015625
vt 0.140625 0.046875
vt 0.109375 0.046875
vt 0.1796875 0.2617188
vt 0.2109375 0.2617188
vt 0.2109375 0.2929688
vt 0.1796875 0.2929688
vt 0.2148438 0.2617188
vt 0.2460938 0.2617188
vt 0.2460938 0.2929688
vt 0.2148438 0.2929688
vt 0.25 0.2617188
vt 0.28125 0.2617188
vt 0.28125 0.2929688
vt 0.25 0.2929688
vt 0.2851563 0.2617188
vt 0.3164063 0.2617188
vt 0.3164063 0.2929688
vt 0.2851563 0.2929688
vt 0.3203125 0.2617188
vt 0.3515625 0.2617188
vt 0.3515625 0.2929688
vt 0.3203125 0.2929688
vt 0.3554688 0.2617188
vt 0.3867188 0.2617188
vt 0.3867188 0.2929688
vt 0.3554688 0.2929688
vt 0.6367188 0.4375
vt 0.6679688 0.4375
vt 0.6679688 0.46875
vt 0.6367188 0.46875
vt 0.6367188 0.4023438
vt 0.6679688 0.4023438
vt 0.6679688 0.4335938
vt 0.6367188 0.4335938
vt 0.4960938 0.015625
vt 0.5273438 0.015625
vt 0.5273438 0.046875
vt 0.4960938 0.046875
vt 0.53125 0.015625
vt 0.5625 0.015625
vt 0.5625 0.046875
vt 0.53125 0.046875
vt 0.6367188 0.3671875
vt 0.6679688 0.3671875
vt 0.6679688 0.3984375
vt 0.6367188 0.3984375

# Normal
vn 0 0 -1

# Mesh description
g Escena2_mesh_0004

# Faces
f 1/1/1 2/2/1 3/3/1 4/4/1
f 5/5/1 6/6/1 7/7/1 8/8/1
f 9/9/1 10/10/1 11/11/1 12/12/1
f 13/1/1 14/2/1 15/3/1 16/4/1
f 17/5/1 18/6/1 19/7/1 20/8/1
f 21/9/1 22/10/1 23/11/1 24/12/1
f 25/13/1 26/14/1 27/15/1 28/16/1
f 29/17/1 30/18/1 31/19/1 32/20/1
f 33/21/1 34/22/1 35/23/1 36/24/1
f 37/21/1 38/22/1 39/23/1 40/24/1
f 41/25/1 42/26/1 43/27/1 44/28/1
f 45/29/1 46/30/1 47/31/1 48/32/1
f 49/33/1 50/34/1 51/35/1 52/36/1
f 53/37/1 54/38/1 55/39/1 56/40/1
f 57/41/1 58/42/1 59/43/1 60/44/1
f 61/33/1 62/34/1 63/35/1 64/36/1
f 65/37/1 66/38/1 67/39/1 68/40/1
f 69/41/1 70/42/1 71/43/1 72/44/1
f 73/45/1 74/46/1 75/47/1 76/48/1
f 77/49/1 78/50/1 79/51/1 80/52/1
f 81/53/1 82/54/1 83/55/1 84/56/1
f 85/57/1 86/58/1 87/59/1 88/60/1
f 89/61/1 90/62/1 91/63/1 92/64/1
f 93/65/1 94/66/1 95/67/1 96/68/1
f 97/33/1 98/34/1 99/35/1 100/36/1
f 101/37/1 102/38/1 103/39/1 104/40/1
f 105/41/1 106/42/1 107/43/1 108/44/1
f 109/33/1 110/34/1 111/35/1 112/36/1
f 113/37/1 114/38/1 115/39/1 116/40/1
f 117/41/1 118/42/1 119/43/1 120/44/1
f 121/69/1 122/70/1 123/71/1 124/72/1
f 125/69/1 126/70/1 127/71/1 128/72/1
f 129/69/1 130/70/1 131/71/1 132/72/1
f 133/69/1 134/70/1 135/71/1 136/72/1
f 137/69/1 138/70/1 139/71/1 140/72/1
f 141/69/1 142/70/1 143/71/1 144/72/1
f 145/33/1 146/34/1 147/35/1 148/36/1
f 149/37/1 150/38/1 151/39/1 152/40/1
f 153/41/1 154/42/1 155/43/1 156/44/1
f 157/33/1 158/34/1 159/35/1 160/36/1
f 161/37/1 162/38/1 163/39/1 164/40/1
f 165/41/1 166/42/1 167/43/1 168/44/1
f 169/73/1 170/74/1 171/75/1 172/76/1
f 173/73/1 174/74/1 175/75/1 176/76/1
f 177/73/1 178/74/1 179/75/1 180/76/1
f 181/73/1 182/74/1 183/75/1 184/76/1
f 185/33/1 186/34/1 187/35/1 188/36/1
f 189/37/1 190/38/1 191/39/1 192/40/1
f 193/77/1 194/78/1 195/79/1 196/80/1
f 197/81/1 198/82/1 199/83/1 200/84/1
f 201/37/1 202/38/1 203/39/1 204/40/1
f 205/41/1 206/42/1 207/43/1 208/44/1
f 209/85/1 210/86/1 211/87/1 212/88/1
f 213/85/1 214/86/1 215/87/1 216/88/1
f 217/85/1 218/86/1 219/87/1 220/88/1
f 221/85/1 222/86/1 223/87/1 224/88/1
f 225/33/1 226/34/1 227/35/1 228/36/1
f 229/37/1 230/38/1 231/39/1 232/40/1
f 233/77/1 234/78/1 235/79/1 236/80/1
f 237/81/1 238/82/1 239/83/1 240/84/1
f 241/37/1 242/38/1 243/39/1 244/40/1
f 245/41/1 246/42/1 247/43/1 248/44/1

