# Tiled2Unity generated file. Do not modify by hand.
# Wavefront file for 'Escena2_mesh_0005.obj'

# Vertices (Count = 448)
v 0 -1 0
v -1 -1 0
v -1 0 0
v 0 0 0
v -1 -1 0
v -2 -1 0
v -2 0 0
v -1 0 0
v -2 -1 0
v -3 -1 0
v -3 0 0
v -2 0 0
v -3 -1 0
v -4 -1 0
v -4 0 0
v -3 0 0
v -4 -1 0
v -5 -1 0
v -5 0 0
v -4 0 0
v -5 -1 0
v -6 -1 0
v -6 0 0
v -5 0 0
v -6 -1 0
v -7 -1 0
v -7 0 0
v -6 0 0
v -7 -1 0
v -8 -1 0
v -8 0 0
v -7 0 0
v -8 -1 0
v -9 -1 0
v -9 0 0
v -8 0 0
v -9 -1 0
v -10 -1 0
v -10 0 0
v -9 0 0
v -10 -1 0
v -11 -1 0
v -11 0 0
v -10 0 0
v -11 -1 0
v -12 -1 0
v -12 0 0
v -11 0 0
v -12 -1 0
v -13 -1 0
v -13 0 0
v -12 0 0
v -13 -1 0
v -14 -1 0
v -14 0 0
v -13 0 0
v -14 -1 0
v -15 -1 0
v -15 0 0
v -14 0 0
v -15 -1 0
v -16 -1 0
v -16 0 0
v -15 0 0
v 0 -2 0
v -1 -2 0
v -1 -1 0
v 0 -1 0
v -1 -2 0
v -2 -2 0
v -2 -1 0
v -1 -1 0
v -2 -2 0
v -3 -2 0
v -3 -1 0
v -2 -1 0
v -3 -2 0
v -4 -2 0
v -4 -1 0
v -3 -1 0
v -4 -2 0
v -5 -2 0
v -5 -1 0
v -4 -1 0
v -5 -2 0
v -6 -2 0
v -6 -1 0
v -5 -1 0
v -6 -2 0
v -7 -2 0
v -7 -1 0
v -6 -1 0
v -7 -2 0
v -8 -2 0
v -8 -1 0
v -7 -1 0
v -8 -2 0
v -9 -2 0
v -9 -1 0
v -8 -1 0
v -9 -2 0
v -10 -2 0
v -10 -1 0
v -9 -1 0
v -10 -2 0
v -11 -2 0
v -11 -1 0
v -10 -1 0
v -11 -2 0
v -12 -2 0
v -12 -1 0
v -11 -1 0
v -12 -2 0
v -13 -2 0
v -13 -1 0
v -12 -1 0
v -13 -2 0
v -14 -2 0
v -14 -1 0
v -13 -1 0
v -14 -2 0
v -15 -2 0
v -15 -1 0
v -14 -1 0
v -15 -2 0
v -16 -2 0
v -16 -1 0
v -15 -1 0
v 0 -3 0
v -1 -3 0
v -1 -2 0
v 0 -2 0
v -1 -3 0
v -2 -3 0
v -2 -2 0
v -1 -2 0
v -2 -3 0
v -3 -3 0
v -3 -2 0
v -2 -2 0
v -3 -3 0
v -4 -3 0
v -4 -2 0
v -3 -2 0
v -4 -3 0
v -5 -3 0
v -5 -2 0
v -4 -2 0
v -5 -3 0
v -6 -3 0
v -6 -2 0
v -5 -2 0
v -6 -3 0
v -7 -3 0
v -7 -2 0
v -6 -2 0
v -7 -3 0
v -8 -3 0
v -8 -2 0
v -7 -2 0
v -8 -3 0
v -9 -3 0
v -9 -2 0
v -8 -2 0
v -9 -3 0
v -10 -3 0
v -10 -2 0
v -9 -2 0
v -10 -3 0
v -11 -3 0
v -11 -2 0
v -10 -2 0
v -11 -3 0
v -12 -3 0
v -12 -2 0
v -11 -2 0
v -12 -3 0
v -13 -3 0
v -13 -2 0
v -12 -2 0
v -13 -3 0
v -14 -3 0
v -14 -2 0
v -13 -2 0
v -14 -3 0
v -15 -3 0
v -15 -2 0
v -14 -2 0
v -15 -3 0
v -16 -3 0
v -16 -2 0
v -15 -2 0
v 0 -4 0
v -1 -4 0
v -1 -3 0
v 0 -3 0
v -1 -4 0
v -2 -4 0
v -2 -3 0
v -1 -3 0
v -2 -4 0
v -3 -4 0
v -3 -3 0
v -2 -3 0
v -3 -4 0
v -4 -4 0
v -4 -3 0
v -3 -3 0
v -4 -4 0
v -5 -4 0
v -5 -3 0
v -4 -3 0
v -5 -4 0
v -6 -4 0
v -6 -3 0
v -5 -3 0
v -6 -4 0
v -7 -4 0
v -7 -3 0
v -6 -3 0
v -7 -4 0
v -8 -4 0
v -8 -3 0
v -7 -3 0
v -8 -4 0
v -9 -4 0
v -9 -3 0
v -8 -3 0
v -9 -4 0
v -10 -4 0
v -10 -3 0
v -9 -3 0
v -10 -4 0
v -11 -4 0
v -11 -3 0
v -10 -3 0
v -11 -4 0
v -12 -4 0
v -12 -3 0
v -11 -3 0
v -12 -4 0
v -13 -4 0
v -13 -3 0
v -12 -3 0
v -13 -4 0
v -14 -4 0
v -14 -3 0
v -13 -3 0
v -14 -4 0
v -15 -4 0
v -15 -3 0
v -14 -3 0
v -15 -4 0
v -16 -4 0
v -16 -3 0
v -15 -3 0
v 0 -5 0
v -1 -5 0
v -1 -4 0
v 0 -4 0
v -1 -5 0
v -2 -5 0
v -2 -4 0
v -1 -4 0
v -2 -5 0
v -3 -5 0
v -3 -4 0
v -2 -4 0
v -3 -5 0
v -4 -5 0
v -4 -4 0
v -3 -4 0
v -4 -5 0
v -5 -5 0
v -5 -4 0
v -4 -4 0
v -5 -5 0
v -6 -5 0
v -6 -4 0
v -5 -4 0
v -6 -5 0
v -7 -5 0
v -7 -4 0
v -6 -4 0
v -7 -5 0
v -8 -5 0
v -8 -4 0
v -7 -4 0
v -8 -5 0
v -9 -5 0
v -9 -4 0
v -8 -4 0
v -9 -5 0
v -10 -5 0
v -10 -4 0
v -9 -4 0
v -10 -5 0
v -11 -5 0
v -11 -4 0
v -10 -4 0
v -11 -5 0
v -12 -5 0
v -12 -4 0
v -11 -4 0
v -12 -5 0
v -13 -5 0
v -13 -4 0
v -12 -4 0
v -13 -5 0
v -14 -5 0
v -14 -4 0
v -13 -4 0
v -14 -5 0
v -15 -5 0
v -15 -4 0
v -14 -4 0
v -15 -5 0
v -16 -5 0
v -16 -4 0
v -15 -4 0
v 0 -6 0
v -1 -6 0
v -1 -5 0
v 0 -5 0
v -1 -6 0
v -2 -6 0
v -2 -5 0
v -1 -5 0
v -2 -6 0
v -3 -6 0
v -3 -5 0
v -2 -5 0
v -3 -6 0
v -4 -6 0
v -4 -5 0
v -3 -5 0
v -4 -6 0
v -5 -6 0
v -5 -5 0
v -4 -5 0
v -5 -6 0
v -6 -6 0
v -6 -5 0
v -5 -5 0
v -6 -6 0
v -7 -6 0
v -7 -5 0
v -6 -5 0
v -7 -6 0
v -8 -6 0
v -8 -5 0
v -7 -5 0
v -8 -6 0
v -9 -6 0
v -9 -5 0
v -8 -5 0
v -9 -6 0
v -10 -6 0
v -10 -5 0
v -9 -5 0
v -10 -6 0
v -11 -6 0
v -11 -5 0
v -10 -5 0
v -11 -6 0
v -12 -6 0
v -12 -5 0
v -11 -5 0
v -12 -6 0
v -13 -6 0
v -13 -5 0
v -12 -5 0
v -13 -6 0
v -14 -6 0
v -14 -5 0
v -13 -5 0
v -14 -6 0
v -15 -6 0
v -15 -5 0
v -14 -5 0
v -15 -6 0
v -16 -6 0
v -16 -5 0
v -15 -5 0
v 0 -7 0
v -1 -7 0
v -1 -6 0
v 0 -6 0
v -1 -7 0
v -2 -7 0
v -2 -6 0
v -1 -6 0
v -2 -7 0
v -3 -7 0
v -3 -6 0
v -2 -6 0
v -3 -7 0
v -4 -7 0
v -4 -6 0
v -3 -6 0
v -4 -7 0
v -5 -7 0
v -5 -6 0
v -4 -6 0
v -5 -7 0
v -6 -7 0
v -6 -6 0
v -5 -6 0
v -6 -7 0
v -7 -7 0
v -7 -6 0
v -6 -6 0
v -7 -7 0
v -8 -7 0
v -8 -6 0
v -7 -6 0
v -8 -7 0
v -9 -7 0
v -9 -6 0
v -8 -6 0
v -9 -7 0
v -10 -7 0
v -10 -6 0
v -9 -6 0
v -10 -7 0
v -11 -7 0
v -11 -6 0
v -10 -6 0
v -11 -7 0
v -12 -7 0
v -12 -6 0
v -11 -6 0
v -12 -7 0
v -13 -7 0
v -13 -6 0
v -12 -6 0
v -13 -7 0
v -14 -7 0
v -14 -6 0
v -13 -6 0
v -14 -7 0
v -15 -7 0
v -15 -6 0
v -14 -6 0
v -15 -7 0
v -16 -7 0
v -16 -6 0
v -15 -6 0

# Texture cooridinates (Count = 144)
vt 0.59375 0.5
vt 0.625 0.5
vt 0.625 0.53125
vt 0.59375 0.53125
vt 0.65625 0.5
vt 0.65625 0.53125
vt 0.6875 0.5
vt 0.6875 0.53125
vt 0.71875 0.5
vt 0.71875 0.53125
vt 0.75 0.5
vt 0.75 0.53125
vt 0.78125 0.5
vt 0.78125 0.53125
vt 0.8125 0.5
vt 0.8125 0.53125
vt 0.84375 0.5
vt 0.84375 0.53125
vt 0.59375 0.9375
vt 0.625 0.9375
vt 0.625 0.96875
vt 0.59375 0.96875
vt 0.65625 0.9375
vt 0.65625 0.96875
vt 0.6875 0.9375
vt 0.6875 0.96875
vt 0.71875 0.9375
vt 0.71875 0.96875
vt 0.75 0.9375
vt 0.75 0.96875
vt 0.78125 0.9375
vt 0.78125 0.96875
vt 0.8125 0.9375
vt 0.8125 0.96875
vt 0.84375 0.9375
vt 0.84375 0.96875
vt 0.59375 0.46875
vt 0.625 0.46875
vt 0.65625 0.46875
vt 0.6875 0.46875
vt 0.71875 0.46875
vt 0.75 0.46875
vt 0.78125 0.46875
vt 0.8125 0.46875
vt 0.84375 0.46875
vt 0.59375 0.90625
vt 0.625 0.90625
vt 0.65625 0.90625
vt 0.6875 0.90625
vt 0.71875 0.90625
vt 0.75 0.90625
vt 0.78125 0.90625
vt 0.8125 0.90625
vt 0.84375 0.90625
vt 0.59375 0.4375
vt 0.625 0.4375
vt 0.65625 0.4375
vt 0.6875 0.4375
vt 0.71875 0.4375
vt 0.75 0.4375
vt 0.78125 0.4375
vt 0.8125 0.4375
vt 0.84375 0.4375
vt 0.59375 0.875
vt 0.625 0.875
vt 0.65625 0.875
vt 0.6875 0.875
vt 0.71875 0.875
vt 0.75 0.875
vt 0.78125 0.875
vt 0.8125 0.875
vt 0.84375 0.875
vt 0.59375 0.40625
vt 0.625 0.40625
vt 0.65625 0.40625
vt 0.6875 0.40625
vt 0.71875 0.40625
vt 0.75 0.40625
vt 0.78125 0.40625
vt 0.8125 0.40625
vt 0.84375 0.40625
vt 0.59375 0.84375
vt 0.625 0.84375
vt 0.65625 0.84375
vt 0.6875 0.84375
vt 0.71875 0.84375
vt 0.75 0.84375
vt 0.78125 0.84375
vt 0.8125 0.84375
vt 0.84375 0.84375
vt 0.59375 0.375
vt 0.625 0.375
vt 0.65625 0.375
vt 0.6875 0.375
vt 0.71875 0.375
vt 0.75 0.375
vt 0.78125 0.375
vt 0.8125 0.375
vt 0.84375 0.375
vt 0.59375 0.8125
vt 0.625 0.8125
vt 0.65625 0.8125
vt 0.6875 0.8125
vt 0.71875 0.8125
vt 0.75 0.8125
vt 0.78125 0.8125
vt 0.8125 0.8125
vt 0.84375 0.8125
vt 0.59375 0.34375
vt 0.625 0.34375
vt 0.65625 0.34375
vt 0.6875 0.34375
vt 0.71875 0.34375
vt 0.75 0.34375
vt 0.78125 0.34375
vt 0.8125 0.34375
vt 0.84375 0.34375
vt 0.59375 0.78125
vt 0.625 0.78125
vt 0.65625 0.78125
vt 0.6875 0.78125
vt 0.71875 0.78125
vt 0.75 0.78125
vt 0.78125 0.78125
vt 0.8125 0.78125
vt 0.84375 0.78125
vt 0.59375 0.3125
vt 0.625 0.3125
vt 0.65625 0.3125
vt 0.6875 0.3125
vt 0.71875 0.3125
vt 0.75 0.3125
vt 0.78125 0.3125
vt 0.8125 0.3125
vt 0.84375 0.3125
vt 0.59375 0.75
vt 0.625 0.75
vt 0.65625 0.75
vt 0.6875 0.75
vt 0.71875 0.75
vt 0.75 0.75
vt 0.78125 0.75
vt 0.8125 0.75
vt 0.84375 0.75

# Normal
vn 0 0 -1

# Mesh description
g Escena2_mesh_0005

# Faces
f 1/1/1 2/2/1 3/3/1 4/4/1
f 5/2/1 6/5/1 7/6/1 8/3/1
f 9/5/1 10/7/1 11/8/1 12/6/1
f 13/7/1 14/9/1 15/10/1 16/8/1
f 17/9/1 18/11/1 19/12/1 20/10/1
f 21/11/1 22/13/1 23/14/1 24/12/1
f 25/13/1 26/15/1 27/16/1 28/14/1
f 29/15/1 30/17/1 31/18/1 32/16/1
f 33/19/1 34/20/1 35/21/1 36/22/1
f 37/20/1 38/23/1 39/24/1 40/21/1
f 41/23/1 42/25/1 43/26/1 44/24/1
f 45/25/1 46/27/1 47/28/1 48/26/1
f 49/27/1 50/29/1 51/30/1 52/28/1
f 53/29/1 54/31/1 55/32/1 56/30/1
f 57/31/1 58/33/1 59/34/1 60/32/1
f 61/33/1 62/35/1 63/36/1 64/34/1
f 65/37/1 66/38/1 67/2/1 68/1/1
f 69/38/1 70/39/1 71/5/1 72/2/1
f 73/39/1 74/40/1 75/7/1 76/5/1
f 77/40/1 78/41/1 79/9/1 80/7/1
f 81/41/1 82/42/1 83/11/1 84/9/1
f 85/42/1 86/43/1 87/13/1 88/11/1
f 89/43/1 90/44/1 91/15/1 92/13/1
f 93/44/1 94/45/1 95/17/1 96/15/1
f 97/46/1 98/47/1 99/20/1 100/19/1
f 101/47/1 102/48/1 103/23/1 104/20/1
f 105/48/1 106/49/1 107/25/1 108/23/1
f 109/49/1 110/50/1 111/27/1 112/25/1
f 113/50/1 114/51/1 115/29/1 116/27/1
f 117/51/1 118/52/1 119/31/1 120/29/1
f 121/52/1 122/53/1 123/33/1 124/31/1
f 125/53/1 126/54/1 127/35/1 128/33/1
f 129/55/1 130/56/1 131/38/1 132/37/1
f 133/56/1 134/57/1 135/39/1 136/38/1
f 137/57/1 138/58/1 139/40/1 140/39/1
f 141/58/1 142/59/1 143/41/1 144/40/1
f 145/59/1 146/60/1 147/42/1 148/41/1
f 149/60/1 150/61/1 151/43/1 152/42/1
f 153/61/1 154/62/1 155/44/1 156/43/1
f 157/62/1 158/63/1 159/45/1 160/44/1
f 161/64/1 162/65/1 163/47/1 164/46/1
f 165/65/1 166/66/1 167/48/1 168/47/1
f 169/66/1 170/67/1 171/49/1 172/48/1
f 173/67/1 174/68/1 175/50/1 176/49/1
f 177/68/1 178/69/1 179/51/1 180/50/1
f 181/69/1 182/70/1 183/52/1 184/51/1
f 185/70/1 186/71/1 187/53/1 188/52/1
f 189/71/1 190/72/1 191/54/1 192/53/1
f 193/73/1 194/74/1 195/56/1 196/55/1
f 197/74/1 198/75/1 199/57/1 200/56/1
f 201/75/1 202/76/1 203/58/1 204/57/1
f 205/76/1 206/77/1 207/59/1 208/58/1
f 209/77/1 210/78/1 211/60/1 212/59/1
f 213/78/1 214/79/1 215/61/1 216/60/1
f 217/79/1 218/80/1 219/62/1 220/61/1
f 221/80/1 222/81/1 223/63/1 224/62/1
f 225/82/1 226/83/1 227/65/1 228/64/1
f 229/83/1 230/84/1 231/66/1 232/65/1
f 233/84/1 234/85/1 235/67/1 236/66/1
f 237/85/1 238/86/1 239/68/1 240/67/1
f 241/86/1 242/87/1 243/69/1 244/68/1
f 245/87/1 246/88/1 247/70/1 248/69/1
f 249/88/1 250/89/1 251/71/1 252/70/1
f 253/89/1 254/90/1 255/72/1 256/71/1
f 257/91/1 258/92/1 259/74/1 260/73/1
f 261/92/1 262/93/1 263/75/1 264/74/1
f 265/93/1 266/94/1 267/76/1 268/75/1
f 269/94/1 270/95/1 271/77/1 272/76/1
f 273/95/1 274/96/1 275/78/1 276/77/1
f 277/96/1 278/97/1 279/79/1 280/78/1
f 281/97/1 282/98/1 283/80/1 284/79/1
f 285/98/1 286/99/1 287/81/1 288/80/1
f 289/100/1 290/101/1 291/83/1 292/82/1
f 293/101/1 294/102/1 295/84/1 296/83/1
f 297/102/1 298/103/1 299/85/1 300/84/1
f 301/103/1 302/104/1 303/86/1 304/85/1
f 305/104/1 306/105/1 307/87/1 308/86/1
f 309/105/1 310/106/1 311/88/1 312/87/1
f 313/106/1 314/107/1 315/89/1 316/88/1
f 317/107/1 318/108/1 319/90/1 320/89/1
f 321/109/1 322/110/1 323/92/1 324/91/1
f 325/110/1 326/111/1 327/93/1 328/92/1
f 329/111/1 330/112/1 331/94/1 332/93/1
f 333/112/1 334/113/1 335/95/1 336/94/1
f 337/113/1 338/114/1 339/96/1 340/95/1
f 341/114/1 342/115/1 343/97/1 344/96/1
f 345/115/1 346/116/1 347/98/1 348/97/1
f 349/116/1 350/117/1 351/99/1 352/98/1
f 353/118/1 354/119/1 355/101/1 356/100/1
f 357/119/1 358/120/1 359/102/1 360/101/1
f 361/120/1 362/121/1 363/103/1 364/102/1
f 365/121/1 366/122/1 367/104/1 368/103/1
f 369/122/1 370/123/1 371/105/1 372/104/1
f 373/123/1 374/124/1 375/106/1 376/105/1
f 377/124/1 378/125/1 379/107/1 380/106/1
f 381/125/1 382/126/1 383/108/1 384/107/1
f 385/127/1 386/128/1 387/110/1 388/109/1
f 389/128/1 390/129/1 391/111/1 392/110/1
f 393/129/1 394/130/1 395/112/1 396/111/1
f 397/130/1 398/131/1 399/113/1 400/112/1
f 401/131/1 402/132/1 403/114/1 404/113/1
f 405/132/1 406/133/1 407/115/1 408/114/1
f 409/133/1 410/134/1 411/116/1 412/115/1
f 413/134/1 414/135/1 415/117/1 416/116/1
f 417/136/1 418/137/1 419/119/1 420/118/1
f 421/137/1 422/138/1 423/120/1 424/119/1
f 425/138/1 426/139/1 427/121/1 428/120/1
f 429/139/1 430/140/1 431/122/1 432/121/1
f 433/140/1 434/141/1 435/123/1 436/122/1
f 437/141/1 438/142/1 439/124/1 440/123/1
f 441/142/1 442/143/1 443/125/1 444/124/1
f 445/143/1 446/144/1 447/126/1 448/125/1

