# Tiled2Unity generated file. Do not modify by hand.
# Wavefront file for 'Escena2_mesh_0008.obj'

# Vertices (Count = 376)
v 0 -15 0
v -1 -15 0
v -1 -14 0
v 0 -14 0
v -8 -15 0
v -9 -15 0
v -9 -14 0
v -8 -14 0
v -11 -15 0
v -12 -15 0
v -12 -14 0
v -11 -14 0
v -28 -15 0
v -29 -15 0
v -29 -14 0
v -28 -14 0
v -31 -15 0
v -32 -15 0
v -32 -14 0
v -31 -14 0
v -48 -15 0
v -49 -15 0
v -49 -14 0
v -48 -14 0
v -51 -15 0
v -52 -15 0
v -52 -14 0
v -51 -14 0
v -59 -15 0
v -60 -15 0
v -60 -14 0
v -59 -14 0
v 0 -16 0
v -1 -16 0
v -1 -15 0
v 0 -15 0
v -8 -16 0
v -9 -16 0
v -9 -15 0
v -8 -15 0
v -11 -16 0
v -12 -16 0
v -12 -15 0
v -11 -15 0
v -28 -16 0
v -29 -16 0
v -29 -15 0
v -28 -15 0
v -31 -16 0
v -32 -16 0
v -32 -15 0
v -31 -15 0
v -48 -16 0
v -49 -16 0
v -49 -15 0
v -48 -15 0
v -51 -16 0
v -52 -16 0
v -52 -15 0
v -51 -15 0
v -59 -16 0
v -60 -16 0
v -60 -15 0
v -59 -15 0
v 0 -17 0
v -1 -17 0
v -1 -16 0
v 0 -16 0
v -8 -17 0
v -9 -17 0
v -9 -16 0
v -8 -16 0
v -11 -17 0
v -12 -17 0
v -12 -16 0
v -11 -16 0
v -28 -17 0
v -29 -17 0
v -29 -16 0
v -28 -16 0
v -31 -17 0
v -32 -17 0
v -32 -16 0
v -31 -16 0
v -48 -17 0
v -49 -17 0
v -49 -16 0
v -48 -16 0
v -51 -17 0
v -52 -17 0
v -52 -16 0
v -51 -16 0
v -59 -17 0
v -60 -17 0
v -60 -16 0
v -59 -16 0
v 0 -18 0
v -1 -18 0
v -1 -17 0
v 0 -17 0
v -8 -18 0
v -9 -18 0
v -9 -17 0
v -8 -17 0
v -11 -18 0
v -12 -18 0
v -12 -17 0
v -11 -17 0
v -28 -18 0
v -29 -18 0
v -29 -17 0
v -28 -17 0
v -31 -18 0
v -32 -18 0
v -32 -17 0
v -31 -17 0
v -48 -18 0
v -49 -18 0
v -49 -17 0
v -48 -17 0
v -51 -18 0
v -52 -18 0
v -52 -17 0
v -51 -17 0
v -59 -18 0
v -60 -18 0
v -60 -17 0
v -59 -17 0
v 0 -19 0
v -1 -19 0
v -1 -18 0
v 0 -18 0
v -8 -19 0
v -9 -19 0
v -9 -18 0
v -8 -18 0
v -11 -19 0
v -12 -19 0
v -12 -18 0
v -11 -18 0
v -28 -19 0
v -29 -19 0
v -29 -18 0
v -28 -18 0
v -31 -19 0
v -32 -19 0
v -32 -18 0
v -31 -18 0
v -48 -19 0
v -49 -19 0
v -49 -18 0
v -48 -18 0
v -51 -19 0
v -52 -19 0
v -52 -18 0
v -51 -18 0
v -59 -19 0
v -60 -19 0
v -60 -18 0
v -59 -18 0
v 0 -20 0
v -1 -20 0
v -1 -19 0
v 0 -19 0
v -1 -20 0
v -2 -20 0
v -2 -19 0
v -1 -19 0
v -2 -20 0
v -3 -20 0
v -3 -19 0
v -2 -19 0
v -3 -20 0
v -4 -20 0
v -4 -19 0
v -3 -19 0
v -4 -20 0
v -5 -20 0
v -5 -19 0
v -4 -19 0
v -5 -20 0
v -6 -20 0
v -6 -19 0
v -5 -19 0
v -6 -20 0
v -7 -20 0
v -7 -19 0
v -6 -19 0
v -7 -20 0
v -8 -20 0
v -8 -19 0
v -7 -19 0
v -8 -20 0
v -9 -20 0
v -9 -19 0
v -8 -19 0
v -11 -20 0
v -12 -20 0
v -12 -19 0
v -11 -19 0
v -12 -20 0
v -13 -20 0
v -13 -19 0
v -12 -19 0
v -13 -20 0
v -14 -20 0
v -14 -19 0
v -13 -19 0
v -14 -20 0
v -15 -20 0
v -15 -19 0
v -14 -19 0
v -15 -20 0
v -16 -20 0
v -16 -19 0
v -15 -19 0
v -16 -20 0
v -17 -20 0
v -17 -19 0
v -16 -19 0
v -17 -20 0
v -18 -20 0
v -18 -19 0
v -17 -19 0
v -18 -20 0
v -19 -20 0
v -19 -19 0
v -18 -19 0
v -19 -20 0
v -20 -20 0
v -20 -19 0
v -19 -19 0
v -20 -20 0
v -21 -20 0
v -21 -19 0
v -20 -19 0
v -21 -20 0
v -22 -20 0
v -22 -19 0
v -21 -19 0
v -22 -20 0
v -23 -20 0
v -23 -19 0
v -22 -19 0
v -23 -20 0
v -24 -20 0
v -24 -19 0
v -23 -19 0
v -24 -20 0
v -25 -20 0
v -25 -19 0
v -24 -19 0
v -25 -20 0
v -26 -20 0
v -26 -19 0
v -25 -19 0
v -26 -20 0
v -27 -20 0
v -27 -19 0
v -26 -19 0
v -27 -20 0
v -28 -20 0
v -28 -19 0
v -27 -19 0
v -28 -20 0
v -29 -20 0
v -29 -19 0
v -28 -19 0
v -31 -20 0
v -32 -20 0
v -32 -19 0
v -31 -19 0
v -32 -20 0
v -33 -20 0
v -33 -19 0
v -32 -19 0
v -33 -20 0
v -34 -20 0
v -34 -19 0
v -33 -19 0
v -34 -20 0
v -35 -20 0
v -35 -19 0
v -34 -19 0
v -35 -20 0
v -36 -20 0
v -36 -19 0
v -35 -19 0
v -36 -20 0
v -37 -20 0
v -37 -19 0
v -36 -19 0
v -37 -20 0
v -38 -20 0
v -38 -19 0
v -37 -19 0
v -38 -20 0
v -39 -20 0
v -39 -19 0
v -38 -19 0
v -39 -20 0
v -40 -20 0
v -40 -19 0
v -39 -19 0
v -40 -20 0
v -41 -20 0
v -41 -19 0
v -40 -19 0
v -41 -20 0
v -42 -20 0
v -42 -19 0
v -41 -19 0
v -42 -20 0
v -43 -20 0
v -43 -19 0
v -42 -19 0
v -43 -20 0
v -44 -20 0
v -44 -19 0
v -43 -19 0
v -44 -20 0
v -45 -20 0
v -45 -19 0
v -44 -19 0
v -45 -20 0
v -46 -20 0
v -46 -19 0
v -45 -19 0
v -46 -20 0
v -47 -20 0
v -47 -19 0
v -46 -19 0
v -47 -20 0
v -48 -20 0
v -48 -19 0
v -47 -19 0
v -48 -20 0
v -49 -20 0
v -49 -19 0
v -48 -19 0
v -51 -20 0
v -52 -20 0
v -52 -19 0
v -51 -19 0
v -52 -20 0
v -53 -20 0
v -53 -19 0
v -52 -19 0
v -53 -20 0
v -54 -20 0
v -54 -19 0
v -53 -19 0
v -54 -20 0
v -55 -20 0
v -55 -19 0
v -54 -19 0
v -55 -20 0
v -56 -20 0
v -56 -19 0
v -55 -19 0
v -56 -20 0
v -57 -20 0
v -57 -19 0
v -56 -19 0
v -57 -20 0
v -58 -20 0
v -58 -19 0
v -57 -19 0
v -58 -20 0
v -59 -20 0
v -59 -19 0
v -58 -19 0
v -59 -20 0
v -60 -20 0
v -60 -19 0
v -59 -19 0

# Texture cooridinates (Count = 18)
vt 0.025 0.5833334
vt 0.05 0.5833334
vt 0.05 0.6111111
vt 0.025 0.6111111
vt 0 0.02777779
vt 0.025 0.02777779
vt 0.025 0.05555558
vt 0 0.05555558
vt 0.025 0.5555556
vt 0.05 0.5555556
vt 0.075 0.5555556
vt 0.075 0.5833334
vt 0.025 0.5277778
vt 0.05 0.5277778
vt 0 0.5277778
vt 0 0.5555556
vt 0.1 0.5555556
vt 0.1 0.5833334

# Normal
vn 0 0 -1

# Mesh description
g Escena2_mesh_0008

# Faces
f 1/1/1 2/2/1 3/3/1 4/4/1
f 5/5/1 6/6/1 7/7/1 8/8/1
f 9/5/1 10/6/1 11/7/1 12/8/1
f 13/5/1 14/6/1 15/7/1 16/8/1
f 17/5/1 18/6/1 19/7/1 20/8/1
f 21/5/1 22/6/1 23/7/1 24/8/1
f 25/5/1 26/6/1 27/7/1 28/8/1
f 29/1/1 30/2/1 31/3/1 32/4/1
f 33/1/1 34/2/1 35/3/1 36/4/1
f 37/5/1 38/6/1 39/7/1 40/8/1
f 41/5/1 42/6/1 43/7/1 44/8/1
f 45/5/1 46/6/1 47/7/1 48/8/1
f 49/5/1 50/6/1 51/7/1 52/8/1
f 53/5/1 54/6/1 55/7/1 56/8/1
f 57/5/1 58/6/1 59/7/1 60/8/1
f 61/1/1 62/2/1 63/3/1 64/4/1
f 65/1/1 66/2/1 67/3/1 68/4/1
f 69/5/1 70/6/1 71/7/1 72/8/1
f 73/5/1 74/6/1 75/7/1 76/8/1
f 77/5/1 78/6/1 79/7/1 80/8/1
f 81/5/1 82/6/1 83/7/1 84/8/1
f 85/5/1 86/6/1 87/7/1 88/8/1
f 89/5/1 90/6/1 91/7/1 92/8/1
f 93/1/1 94/2/1 95/3/1 96/4/1
f 97/1/1 98/2/1 99/3/1 100/4/1
f 101/5/1 102/6/1 103/7/1 104/8/1
f 105/5/1 106/6/1 107/7/1 108/8/1
f 109/5/1 110/6/1 111/7/1 112/8/1
f 113/5/1 114/6/1 115/7/1 116/8/1
f 117/5/1 118/6/1 119/7/1 120/8/1
f 121/5/1 122/6/1 123/7/1 124/8/1
f 125/1/1 126/2/1 127/3/1 128/4/1
f 129/1/1 130/2/1 131/3/1 132/4/1
f 133/5/1 134/6/1 135/7/1 136/8/1
f 137/5/1 138/6/1 139/7/1 140/8/1
f 141/5/1 142/6/1 143/7/1 144/8/1
f 145/5/1 146/6/1 147/7/1 148/8/1
f 149/5/1 150/6/1 151/7/1 152/8/1
f 153/5/1 154/6/1 155/7/1 156/8/1
f 157/1/1 158/2/1 159/3/1 160/4/1
f 161/9/1 162/10/1 163/2/1 164/1/1
f 165/10/1 166/11/1 167/12/1 168/2/1
f 169/10/1 170/11/1 171/12/1 172/2/1
f 173/10/1 174/11/1 175/12/1 176/2/1
f 177/10/1 178/11/1 179/12/1 180/2/1
f 181/10/1 182/11/1 183/12/1 184/2/1
f 185/10/1 186/11/1 187/12/1 188/2/1
f 189/13/1 190/14/1 191/10/1 192/9/1
f 193/5/1 194/6/1 195/7/1 196/8/1
f 197/5/1 198/6/1 199/7/1 200/8/1
f 201/15/1 202/13/1 203/9/1 204/16/1
f 205/10/1 206/11/1 207/12/1 208/2/1
f 209/10/1 210/11/1 211/12/1 212/2/1
f 213/10/1 214/11/1 215/12/1 216/2/1
f 217/10/1 218/11/1 219/12/1 220/2/1
f 221/10/1 222/11/1 223/12/1 224/2/1
f 225/10/1 226/11/1 227/12/1 228/2/1
f 229/10/1 230/11/1 231/12/1 232/2/1
f 233/10/1 234/11/1 235/12/1 236/2/1
f 237/10/1 238/11/1 239/12/1 240/2/1
f 241/10/1 242/11/1 243/12/1 244/2/1
f 245/10/1 246/11/1 247/12/1 248/2/1
f 249/10/1 250/11/1 251/12/1 252/2/1
f 253/10/1 254/11/1 255/12/1 256/2/1
f 257/10/1 258/11/1 259/12/1 260/2/1
f 261/13/1 262/14/1 263/10/1 264/9/1
f 265/5/1 266/6/1 267/7/1 268/8/1
f 269/5/1 270/6/1 271/7/1 272/8/1
f 273/15/1 274/13/1 275/9/1 276/16/1
f 277/10/1 278/11/1 279/12/1 280/2/1
f 281/10/1 282/11/1 283/12/1 284/2/1
f 285/10/1 286/11/1 287/12/1 288/2/1
f 289/10/1 290/11/1 291/12/1 292/2/1
f 293/10/1 294/11/1 295/12/1 296/2/1
f 297/10/1 298/11/1 299/12/1 300/2/1
f 301/10/1 302/11/1 303/12/1 304/2/1
f 305/10/1 306/11/1 307/12/1 308/2/1
f 309/10/1 310/11/1 311/12/1 312/2/1
f 313/10/1 314/11/1 315/12/1 316/2/1
f 317/10/1 318/11/1 319/12/1 320/2/1
f 321/10/1 322/11/1 323/12/1 324/2/1
f 325/10/1 326/11/1 327/12/1 328/2/1
f 329/10/1 330/11/1 331/12/1 332/2/1
f 333/13/1 334/14/1 335/10/1 336/9/1
f 337/5/1 338/6/1 339/7/1 340/8/1
f 341/5/1 342/6/1 343/7/1 344/8/1
f 345/15/1 346/13/1 347/9/1 348/16/1
f 349/10/1 350/11/1 351/12/1 352/2/1
f 353/10/1 354/11/1 355/12/1 356/2/1
f 357/10/1 358/11/1 359/12/1 360/2/1
f 361/10/1 362/11/1 363/12/1 364/2/1
f 365/10/1 366/11/1 367/12/1 368/2/1
f 369/10/1 370/11/1 371/12/1 372/2/1
f 373/11/1 374/17/1 375/18/1 376/12/1

