# Tiled2Unity generated file. Do not modify by hand.
# Wavefront file for 'Casa1_mesh_0003.obj'

# Vertices (Count = 352)
v 0 -1 0
v -1 -1 0
v -1 0 0
v 0 0 0
v -1 -1 0
v -2 -1 0
v -2 0 0
v -1 0 0
v -2 -1 0
v -3 -1 0
v -3 0 0
v -2 0 0
v -3 -1 0
v -4 -1 0
v -4 0 0
v -3 0 0
v -4 -1 0
v -5 -1 0
v -5 0 0
v -4 0 0
v -5 -1 0
v -6 -1 0
v -6 0 0
v -5 0 0
v -6 -1 0
v -7 -1 0
v -7 0 0
v -6 0 0
v -7 -1 0
v -8 -1 0
v -8 0 0
v -7 0 0
v -8 -1 0
v -9 -1 0
v -9 0 0
v -8 0 0
v -9 -1 0
v -10 -1 0
v -10 0 0
v -9 0 0
v -10 -1 0
v -11 -1 0
v -11 0 0
v -10 0 0
v -11 -1 0
v -12 -1 0
v -12 0 0
v -11 0 0
v -12 -1 0
v -13 -1 0
v -13 0 0
v -12 0 0
v -13 -1 0
v -14 -1 0
v -14 0 0
v -13 0 0
v -14 -1 0
v -15 -1 0
v -15 0 0
v -14 0 0
v -15 -1 0
v -16 -1 0
v -16 0 0
v -15 0 0
v -16 -1 0
v -17 -1 0
v -17 0 0
v -16 0 0
v -17 -1 0
v -18 -1 0
v -18 0 0
v -17 0 0
v -18 -1 0
v -19 -1 0
v -19 0 0
v -18 0 0
v -19 -1 0
v -20 -1 0
v -20 0 0
v -19 0 0
v 0 -2 0
v -1 -2 0
v -1 -1 0
v 0 -1 0
v -19 -2 0
v -20 -2 0
v -20 -1 0
v -19 -1 0
v 0 -3 0
v -1 -3 0
v -1 -2 0
v 0 -2 0
v -19 -3 0
v -20 -3 0
v -20 -2 0
v -19 -2 0
v 0 -4 0
v -1 -4 0
v -1 -3 0
v 0 -3 0
v -19 -4 0
v -20 -4 0
v -20 -3 0
v -19 -3 0
v 0 -5 0
v -1 -5 0
v -1 -4 0
v 0 -4 0
v -19 -5 0
v -20 -5 0
v -20 -4 0
v -19 -4 0
v 0 -6 0
v -1 -6 0
v -1 -5 0
v 0 -5 0
v -19 -6 0
v -20 -6 0
v -20 -5 0
v -19 -5 0
v 0 -7 0
v -1 -7 0
v -1 -6 0
v 0 -6 0
v -19 -7 0
v -20 -7 0
v -20 -6 0
v -19 -6 0
v 0 -8 0
v -1 -8 0
v -1 -7 0
v 0 -7 0
v -19 -8 0
v -20 -8 0
v -20 -7 0
v -19 -7 0
v 0 -9 0
v -1 -9 0
v -1 -8 0
v 0 -8 0
v -19 -9 0
v -20 -9 0
v -20 -8 0
v -19 -8 0
v 0 -10 0
v -1 -10 0
v -1 -9 0
v 0 -9 0
v -19 -10 0
v -20 -10 0
v -20 -9 0
v -19 -9 0
v 0 -11 0
v -1 -11 0
v -1 -10 0
v 0 -10 0
v -19 -11 0
v -20 -11 0
v -20 -10 0
v -19 -10 0
v 0 -12 0
v -1 -12 0
v -1 -11 0
v 0 -11 0
v -19 -12 0
v -20 -12 0
v -20 -11 0
v -19 -11 0
v 0 -13 0
v -1 -13 0
v -1 -12 0
v 0 -12 0
v -19 -13 0
v -20 -13 0
v -20 -12 0
v -19 -12 0
v 0 -14 0
v -1 -14 0
v -1 -13 0
v 0 -13 0
v -19 -14 0
v -20 -14 0
v -20 -13 0
v -19 -13 0
v 0 -15 0
v -1 -15 0
v -1 -14 0
v 0 -14 0
v -19 -15 0
v -20 -15 0
v -20 -14 0
v -19 -14 0
v 0 -16 0
v -1 -16 0
v -1 -15 0
v 0 -15 0
v -19 -16 0
v -20 -16 0
v -20 -15 0
v -19 -15 0
v 0 -17 0
v -1 -17 0
v -1 -16 0
v 0 -16 0
v -19 -17 0
v -20 -17 0
v -20 -16 0
v -19 -16 0
v 0 -18 0
v -1 -18 0
v -1 -17 0
v 0 -17 0
v -19 -18 0
v -20 -18 0
v -20 -17 0
v -19 -17 0
v 0 -19 0
v -1 -19 0
v -1 -18 0
v 0 -18 0
v -1 -19 0
v -2 -19 0
v -2 -18 0
v -1 -18 0
v -2 -19 0
v -3 -19 0
v -3 -18 0
v -2 -18 0
v -3 -19 0
v -4 -19 0
v -4 -18 0
v -3 -18 0
v -4 -19 0
v -5 -19 0
v -5 -18 0
v -4 -18 0
v -5 -19 0
v -6 -19 0
v -6 -18 0
v -5 -18 0
v -6 -19 0
v -7 -19 0
v -7 -18 0
v -6 -18 0
v -7 -19 0
v -8 -19 0
v -8 -18 0
v -7 -18 0
v -8 -19 0
v -9 -19 0
v -9 -18 0
v -8 -18 0
v -9 -19 0
v -10 -19 0
v -10 -18 0
v -9 -18 0
v -13 -19 0
v -14 -19 0
v -14 -18 0
v -13 -18 0
v -14 -19 0
v -15 -19 0
v -15 -18 0
v -14 -18 0
v -15 -19 0
v -16 -19 0
v -16 -18 0
v -15 -18 0
v -16 -19 0
v -17 -19 0
v -17 -18 0
v -16 -18 0
v -17 -19 0
v -18 -19 0
v -18 -18 0
v -17 -18 0
v -18 -19 0
v -19 -19 0
v -19 -18 0
v -18 -18 0
v -19 -19 0
v -20 -19 0
v -20 -18 0
v -19 -18 0
v 0 -20 0
v -1 -20 0
v -1 -19 0
v 0 -19 0
v -1 -20 0
v -2 -20 0
v -2 -19 0
v -1 -19 0
v -2 -20 0
v -3 -20 0
v -3 -19 0
v -2 -19 0
v -3 -20 0
v -4 -20 0
v -4 -19 0
v -3 -19 0
v -4 -20 0
v -5 -20 0
v -5 -19 0
v -4 -19 0
v -5 -20 0
v -6 -20 0
v -6 -19 0
v -5 -19 0
v -6 -20 0
v -7 -20 0
v -7 -19 0
v -6 -19 0
v -7 -20 0
v -8 -20 0
v -8 -19 0
v -7 -19 0
v -8 -20 0
v -9 -20 0
v -9 -19 0
v -8 -19 0
v -9 -20 0
v -10 -20 0
v -10 -19 0
v -9 -19 0
v -13 -20 0
v -14 -20 0
v -14 -19 0
v -13 -19 0
v -14 -20 0
v -15 -20 0
v -15 -19 0
v -14 -19 0
v -15 -20 0
v -16 -20 0
v -16 -19 0
v -15 -19 0
v -16 -20 0
v -17 -20 0
v -17 -19 0
v -16 -19 0
v -17 -20 0
v -18 -20 0
v -18 -19 0
v -17 -19 0
v -18 -20 0
v -19 -20 0
v -19 -19 0
v -18 -19 0
v -19 -20 0
v -20 -20 0
v -20 -19 0
v -19 -19 0

# Texture cooridinates (Count = 64)
vt 0.575 0.4
vt 0.6 0.4
vt 0.6 0.425
vt 0.575 0.425
vt 0.7 0.4
vt 0.725 0.4
vt 0.725 0.425
vt 0.7 0.425
vt 0.625 0.4
vt 0.625 0.425
vt 0.65 0.4
vt 0.65 0.425
vt 0.675 0.4
vt 0.675 0.425
vt 0.75 0.4
vt 0.75 0.425
vt 0.35 0.325
vt 0.375 0.325
vt 0.375 0.35
vt 0.35 0.35
vt 0.55 0.35
vt 0.575 0.35
vt 0.575 0.375
vt 0.55 0.375
vt 0.35 0.3
vt 0.375 0.3
vt 0.55 0.325
vt 0.575 0.325
vt 0.35 0.275
vt 0.375 0.275
vt 0.55 0.3
vt 0.575 0.3
vt 0.55 0.275
vt 0.575 0.275
vt 0.375 0.375
vt 0.35 0.375
vt 0.35 0.25
vt 0.375 0.25
vt 0.4 0.25
vt 0.4 0.275
vt 0.425 0.25
vt 0.425 0.275
vt 0.45 0.25
vt 0.45 0.275
vt 0.475 0.25
vt 0.475 0.275
vt 0.5 0.25
vt 0.525 0.25
vt 0.525 0.275
vt 0.5 0.275
vt 0.725 0.25
vt 0.75 0.25
vt 0.75 0.275
vt 0.725 0.275
vt 0.45 0.95
vt 0.475 0.95
vt 0.475 0.975
vt 0.45 0.975
vt 0.4 0.95
vt 0.425 0.95
vt 0.425 0.975
vt 0.4 0.975
vt 0.5 0.95
vt 0.5 0.975

# Normal
vn 0 0 -1

# Mesh description
g Casa1_mesh_0003

# Faces
f 1/1/1 2/2/1 3/3/1 4/4/1
f 5/5/1 6/6/1 7/7/1 8/8/1
f 9/2/1 10/9/1 11/10/1 12/3/1
f 13/9/1 14/11/1 15/12/1 16/10/1
f 17/11/1 18/13/1 19/14/1 20/12/1
f 21/13/1 22/5/1 23/8/1 24/14/1
f 25/5/1 26/6/1 27/7/1 28/8/1
f 29/2/1 30/9/1 31/10/1 32/3/1
f 33/9/1 34/11/1 35/12/1 36/10/1
f 37/11/1 38/13/1 39/14/1 40/12/1
f 41/13/1 42/5/1 43/8/1 44/14/1
f 45/5/1 46/6/1 47/7/1 48/8/1
f 49/2/1 50/9/1 51/10/1 52/3/1
f 53/2/1 54/9/1 55/10/1 56/3/1
f 57/9/1 58/11/1 59/12/1 60/10/1
f 61/11/1 62/13/1 63/14/1 64/12/1
f 65/13/1 66/5/1 67/8/1 68/14/1
f 69/5/1 70/6/1 71/7/1 72/8/1
f 73/5/1 74/6/1 75/7/1 76/8/1
f 77/6/1 78/15/1 79/16/1 80/7/1
f 81/17/1 82/18/1 83/19/1 84/20/1
f 85/21/1 86/22/1 87/23/1 88/24/1
f 89/25/1 90/26/1 91/18/1 92/17/1
f 93/27/1 94/28/1 95/22/1 96/21/1
f 97/29/1 98/30/1 99/26/1 100/25/1
f 101/31/1 102/32/1 103/28/1 104/27/1
f 105/25/1 106/26/1 107/18/1 108/17/1
f 109/33/1 110/34/1 111/32/1 112/31/1
f 113/29/1 114/30/1 115/26/1 116/25/1
f 117/33/1 118/34/1 119/32/1 120/31/1
f 121/20/1 122/19/1 123/35/1 124/36/1
f 125/21/1 126/22/1 127/23/1 128/24/1
f 129/17/1 130/18/1 131/19/1 132/20/1
f 133/27/1 134/28/1 135/22/1 136/21/1
f 137/25/1 138/26/1 139/18/1 140/17/1
f 141/31/1 142/32/1 143/28/1 144/27/1
f 145/29/1 146/30/1 147/26/1 148/25/1
f 149/33/1 150/34/1 151/32/1 152/31/1
f 153/20/1 154/19/1 155/35/1 156/36/1
f 157/21/1 158/22/1 159/23/1 160/24/1
f 161/17/1 162/18/1 163/19/1 164/20/1
f 165/27/1 166/28/1 167/22/1 168/21/1
f 169/25/1 170/26/1 171/18/1 172/17/1
f 173/31/1 174/32/1 175/28/1 176/27/1
f 177/29/1 178/30/1 179/26/1 180/25/1
f 181/33/1 182/34/1 183/32/1 184/31/1
f 185/20/1 186/19/1 187/35/1 188/36/1
f 189/21/1 190/22/1 191/23/1 192/24/1
f 193/17/1 194/18/1 195/19/1 196/20/1
f 197/27/1 198/28/1 199/22/1 200/21/1
f 201/25/1 202/26/1 203/18/1 204/17/1
f 205/31/1 206/32/1 207/28/1 208/27/1
f 209/29/1 210/30/1 211/26/1 212/25/1
f 213/33/1 214/34/1 215/32/1 216/31/1
f 217/37/1 218/38/1 219/30/1 220/29/1
f 221/38/1 222/39/1 223/40/1 224/30/1
f 225/39/1 226/41/1 227/42/1 228/40/1
f 229/41/1 230/43/1 231/44/1 232/42/1
f 233/39/1 234/41/1 235/42/1 236/40/1
f 237/41/1 238/43/1 239/44/1 240/42/1
f 241/38/1 242/39/1 243/40/1 244/30/1
f 245/39/1 246/41/1 247/42/1 248/40/1
f 249/41/1 250/43/1 251/44/1 252/42/1
f 253/43/1 254/45/1 255/46/1 256/44/1
f 257/47/1 258/48/1 259/49/1 260/50/1
f 261/38/1 262/39/1 263/40/1 264/30/1
f 265/39/1 266/41/1 267/42/1 268/40/1
f 269/41/1 270/43/1 271/44/1 272/42/1
f 273/38/1 274/39/1 275/40/1 276/30/1
f 277/39/1 278/41/1 279/42/1 280/40/1
f 281/51/1 282/52/1 283/53/1 284/54/1
f 285/55/1 286/56/1 287/57/1 288/58/1
f 289/55/1 290/56/1 291/57/1 292/58/1
f 293/55/1 294/56/1 295/57/1 296/58/1
f 297/55/1 298/56/1 299/57/1 300/58/1
f 301/55/1 302/56/1 303/57/1 304/58/1
f 305/55/1 306/56/1 307/57/1 308/58/1
f 309/55/1 310/56/1 311/57/1 312/58/1
f 313/55/1 314/56/1 315/57/1 316/58/1
f 317/55/1 318/56/1 319/57/1 320/58/1
f 321/59/1 322/60/1 323/61/1 324/62/1
f 325/56/1 326/63/1 327/64/1 328/57/1
f 329/55/1 330/56/1 331/57/1 332/58/1
f 333/55/1 334/56/1 335/57/1 336/58/1
f 337/55/1 338/56/1 339/57/1 340/58/1
f 341/55/1 342/56/1 343/57/1 344/58/1
f 345/55/1 346/56/1 347/57/1 348/58/1
f 349/55/1 350/56/1 351/57/1 352/58/1

